<svg xmlns="http://www.w3.org/2000/svg" xmlns:xlink="http://www.w3.org/1999/xlink" width="1200" zoomAndPan="magnify" viewBox="0 0 900 179.999997" height="240" preserveAspectRatio="xMidYMid meet" version="1.0"><defs><g/><clipPath id="ee2fe8098d"><rect x="0" width="672" y="0" height="180"/></clipPath></defs><g transform="matrix(1, 0, 0, 1, 116, 0)"><g clip-path="url(#ee2fe8098d)"><g fill="#f7f7f7" fill-opacity="1"><g transform="translate(2.206069, 153.82406)"><g><path d="M 22.890625 -9.5 C 22.066406 -9.5 21.421875 -9.910156 20.953125 -10.734375 C 19.890625 -12.023438 19.003906 -14.195312 18.296875 -17.25 C 17.597656 -20.300781 17.070312 -23.703125 16.71875 -27.453125 C 16.375 -31.210938 16.113281 -34.734375 15.9375 -38.015625 C 15.757812 -41.304688 15.671875 -43.832031 15.671875 -45.59375 C 15.671875 -46.882812 15.082031 -47.765625 13.90625 -48.234375 L 3.703125 -53.515625 C 2.285156 -54.109375 1.226562 -54.695312 0.53125 -55.28125 C 0.175781 -55.519531 0 -55.875 0 -56.34375 C -0.113281 -56.8125 0.117188 -57.046875 0.703125 -57.046875 C 1.410156 -57.160156 2.113281 -57.273438 2.8125 -57.390625 C 3.519531 -57.515625 4.285156 -57.632812 5.109375 -57.75 C 5.804688 -57.863281 6.507812 -58.007812 7.21875 -58.1875 C 7.925781 -58.363281 8.628906 -58.507812 9.328125 -58.625 C 12.023438 -59.445312 13.84375 -60.003906 14.78125 -60.296875 C 15.726562 -60.585938 16.285156 -61.203125 16.453125 -62.140625 C 16.628906 -63.085938 16.835938 -64.910156 17.078125 -67.609375 C 17.546875 -71.597656 18.101562 -75.53125 18.75 -79.40625 C 19.394531 -83.28125 20.070312 -87.15625 20.78125 -91.03125 C 21.25 -93.019531 21.65625 -95.070312 22 -97.1875 C 22.351562 -99.300781 22.765625 -101.414062 23.234375 -103.53125 C 23.703125 -105.632812 24.140625 -107.742188 24.546875 -109.859375 C 24.960938 -111.972656 25.40625 -114.03125 25.875 -116.03125 C 26 -116.5 26.085938 -116.9375 26.140625 -117.34375 C 26.203125 -117.757812 26.234375 -118.203125 26.234375 -118.671875 C 26.117188 -119.609375 26.117188 -120.488281 26.234375 -121.3125 C 26.585938 -121.65625 26.820312 -121.828125 26.9375 -121.828125 C 27.289062 -121.828125 27.523438 -121.769531 27.640625 -121.65625 C 28.222656 -121.425781 28.515625 -120.84375 28.515625 -119.90625 C 28.398438 -119.425781 28.34375 -118.953125 28.34375 -118.484375 C 28.34375 -118.015625 28.34375 -117.546875 28.34375 -117.078125 C 28.34375 -116.609375 28.3125 -116.109375 28.25 -115.578125 C 28.195312 -115.054688 28.113281 -114.5625 28 -114.09375 C 27.53125 -111.863281 27.117188 -109.660156 26.765625 -107.484375 C 26.410156 -105.316406 26 -103.117188 25.53125 -100.890625 C 25.0625 -98.648438 24.648438 -96.445312 24.296875 -94.28125 C 23.941406 -92.113281 23.53125 -89.910156 23.0625 -87.671875 C 22.476562 -84.148438 21.921875 -80.628906 21.390625 -77.109375 C 20.859375 -73.585938 20.421875 -70.066406 20.078125 -66.546875 L 20.078125 -63.5625 C 20.078125 -63.207031 20.367188 -63.03125 20.953125 -63.03125 C 21.421875 -63.144531 21.832031 -63.257812 22.1875 -63.375 C 22.539062 -63.5 22.773438 -63.617188 22.890625 -63.734375 L 28.703125 -67.078125 C 30.460938 -67.898438 31.578125 -69.367188 32.046875 -71.484375 C 32.515625 -73.003906 33.007812 -74.613281 33.53125 -76.3125 C 34.0625 -78.019531 34.625 -79.875 35.21875 -81.875 C 36.507812 -85.863281 38.0625 -90.054688 39.875 -94.453125 C 41.695312 -98.859375 43.722656 -103.234375 45.953125 -107.578125 C 48.066406 -112.035156 50.414062 -115.96875 53 -119.375 C 55.582031 -122.769531 58.335938 -125.523438 61.265625 -127.640625 C 64.203125 -129.753906 67.253906 -130.8125 70.421875 -130.8125 C 72.773438 -130.8125 74.59375 -129.957031 75.875 -128.25 C 77.164062 -126.550781 77.753906 -124.53125 77.640625 -122.1875 C 77.523438 -120.78125 77.289062 -119.3125 76.9375 -117.78125 C 76.582031 -116.257812 75.992188 -114.675781 75.171875 -113.03125 C 73.648438 -109.75 71.710938 -106.34375 69.359375 -102.8125 C 67.015625 -99.289062 64.316406 -95.832031 61.265625 -92.4375 C 59.742188 -90.675781 58.21875 -88.972656 56.6875 -87.328125 C 55.164062 -85.679688 53.640625 -84.097656 52.109375 -82.578125 C 49.054688 -79.398438 46.117188 -76.578125 43.296875 -74.109375 C 40.484375 -71.648438 38.023438 -69.660156 35.921875 -68.140625 C 34.503906 -67.316406 33.625 -66.023438 33.28125 -64.265625 C 32.8125 -62.734375 32.425781 -61.175781 32.125 -59.59375 C 31.832031 -58.007812 31.570312 -56.394531 31.34375 -54.75 C 31.101562 -53.226562 30.804688 -51.675781 30.453125 -50.09375 C 30.109375 -48.507812 29.816406 -46.894531 29.578125 -45.25 C 29.335938 -44.3125 29.335938 -43.664062 29.578125 -43.3125 C 29.816406 -42.957031 30.34375 -42.664062 31.15625 -42.4375 C 33.507812 -41.613281 35.890625 -40.90625 38.296875 -40.3125 C 40.703125 -39.726562 43.132812 -39.316406 45.59375 -39.078125 L 47.53125 -39.078125 C 53.519531 -39.078125 59.359375 -40.632812 65.046875 -43.75 C 70.742188 -46.863281 75.878906 -50.828125 80.453125 -55.640625 C 85.035156 -60.453125 88.734375 -65.378906 91.546875 -70.421875 C 91.671875 -70.535156 91.847656 -70.832031 92.078125 -71.3125 C 92.316406 -71.539062 92.492188 -71.65625 92.609375 -71.65625 C 92.722656 -71.539062 92.84375 -71.484375 92.96875 -71.484375 C 93.4375 -71.367188 93.785156 -70.78125 94.015625 -69.71875 L 93.84375 -68.484375 L 93.3125 -67.4375 C 90.03125 -62.269531 86.128906 -57.304688 81.609375 -52.546875 C 77.085938 -47.796875 72.097656 -43.953125 66.640625 -41.015625 C 61.179688 -38.085938 55.285156 -36.625 48.953125 -36.625 C 46.367188 -36.625 43.84375 -36.914062 41.375 -37.5 C 38.90625 -38.082031 36.441406 -38.726562 33.984375 -39.4375 C 33.742188 -39.550781 33.390625 -39.664062 32.921875 -39.78125 C 32.453125 -39.90625 31.925781 -40.082031 31.34375 -40.3125 C 31.101562 -40.4375 30.632812 -40.5 29.9375 -40.5 C 29.34375 -40.5 28.929688 -39.851562 28.703125 -38.5625 L 27.640625 -27.8125 C 27.523438 -26.875 27.4375 -25.875 27.375 -24.8125 C 27.320312 -23.757812 27.296875 -22.707031 27.296875 -21.65625 C 27.171875 -20.601562 27.078125 -19.546875 27.015625 -18.484375 C 26.960938 -17.429688 26.878906 -16.4375 26.765625 -15.5 C 26.640625 -14.90625 26.519531 -14.285156 26.40625 -13.640625 C 26.289062 -12.992188 26.113281 -12.257812 25.875 -11.4375 C 25.53125 -10.382812 24.828125 -9.800781 23.765625 -9.6875 C 23.648438 -9.6875 23.5625 -9.6875 23.5 -9.6875 C 23.445312 -9.6875 23.421875 -9.6875 23.421875 -9.6875 C 23.296875 -9.5625 23.117188 -9.5 22.890625 -9.5 Z M 22.71875 -15.671875 C 22.832031 -15.671875 23.066406 -15.847656 23.421875 -16.203125 C 23.535156 -16.316406 23.59375 -16.609375 23.59375 -17.078125 C 23.59375 -17.546875 23.648438 -17.898438 23.765625 -18.140625 L 25.359375 -38.203125 C 25.585938 -40.316406 25.582031 -41.632812 25.34375 -42.15625 C 25.113281 -42.6875 24.003906 -43.363281 22.015625 -44.1875 C 21.890625 -44.3125 21.769531 -44.375 21.65625 -44.375 C 21.539062 -44.375 21.421875 -44.429688 21.296875 -44.546875 C 21.179688 -44.660156 21.035156 -44.71875 20.859375 -44.71875 C 20.679688 -44.71875 20.535156 -44.773438 20.421875 -44.890625 C 19.484375 -45.128906 19.015625 -44.78125 19.015625 -43.84375 C 19.015625 -43.25 19.015625 -42.597656 19.015625 -41.890625 C 19.015625 -41.191406 19.070312 -40.550781 19.1875 -39.96875 C 19.1875 -39.375 19.1875 -38.722656 19.1875 -38.015625 C 19.1875 -37.316406 19.1875 -36.675781 19.1875 -36.09375 C 19.425781 -33.039062 19.71875 -29.988281 20.0625 -26.9375 C 20.414062 -23.882812 20.945312 -20.832031 21.65625 -17.78125 C 21.769531 -17.664062 21.828125 -17.546875 21.828125 -17.421875 C 21.828125 -17.304688 21.890625 -17.191406 22.015625 -17.078125 C 22.015625 -16.609375 22.070312 -16.316406 22.1875 -16.203125 C 22.1875 -15.847656 22.363281 -15.671875 22.71875 -15.671875 Z M 14.796875 -49.828125 C 15.265625 -49.828125 15.613281 -50.820312 15.84375 -52.8125 C 15.957031 -53.050781 16.015625 -53.816406 16.015625 -55.109375 L 16.015625 -55.640625 C 16.015625 -56.335938 15.925781 -56.773438 15.75 -56.953125 C 15.582031 -57.128906 15.144531 -57.21875 14.4375 -57.21875 C 11.96875 -56.507812 9.441406 -55.921875 6.859375 -55.453125 C 6.390625 -55.335938 6.15625 -55.046875 6.15625 -54.578125 C 6.15625 -54.222656 6.273438 -54.046875 6.515625 -54.046875 C 6.984375 -53.816406 7.800781 -53.347656 8.96875 -52.640625 C 10.144531 -51.941406 11.320312 -51.296875 12.5 -50.703125 C 13.675781 -50.117188 14.441406 -49.828125 14.796875 -49.828125 Z M 25.171875 -44.71875 C 25.523438 -44.71875 25.878906 -44.894531 26.234375 -45.25 C 26.460938 -45.945312 26.578125 -46.359375 26.578125 -46.484375 C 26.816406 -47.773438 27.082031 -49.066406 27.375 -50.359375 C 27.664062 -51.648438 27.929688 -52.941406 28.171875 -54.234375 C 28.398438 -55.515625 28.628906 -56.769531 28.859375 -58 C 29.097656 -59.238281 29.335938 -60.503906 29.578125 -61.796875 C 29.578125 -61.910156 29.578125 -62.054688 29.578125 -62.234375 C 29.578125 -62.410156 29.578125 -62.554688 29.578125 -62.671875 C 29.578125 -63.023438 29.398438 -63.257812 29.046875 -63.375 C 27.753906 -62.789062 26.492188 -62.203125 25.265625 -61.609375 C 24.035156 -61.023438 22.773438 -60.382812 21.484375 -59.6875 L 20.25 -59.15625 C 19.65625 -58.800781 19.359375 -58.210938 19.359375 -57.390625 C 19.242188 -55.984375 19.15625 -54.578125 19.09375 -53.171875 C 19.039062 -51.765625 19.015625 -50.296875 19.015625 -48.765625 C 19.015625 -48.296875 19.25 -47.828125 19.71875 -47.359375 C 21.25 -46.179688 23.066406 -45.300781 25.171875 -44.71875 Z M 36.265625 -72.71875 C 36.734375 -72.71875 37.144531 -72.890625 37.5 -73.234375 C 37.851562 -73.585938 38.144531 -73.828125 38.375 -73.953125 C 41.3125 -76.296875 44.628906 -79.34375 48.328125 -83.09375 C 52.023438 -86.851562 55.660156 -90.90625 59.234375 -95.25 C 62.816406 -99.59375 65.988281 -103.847656 68.75 -108.015625 C 71.507812 -112.179688 73.414062 -115.90625 74.46875 -119.1875 C 75.289062 -121.425781 75.523438 -123.597656 75.171875 -125.703125 C 75.054688 -126.640625 74.644531 -127.3125 73.9375 -127.71875 C 73.238281 -128.132812 72.476562 -128.34375 71.65625 -128.34375 C 71.425781 -128.34375 71.132812 -128.3125 70.78125 -128.25 C 70.425781 -128.195312 70.015625 -128.113281 69.546875 -128 C 64.960938 -126.820312 60.878906 -124.175781 57.296875 -120.0625 C 53.722656 -115.957031 50.585938 -111.144531 47.890625 -105.625 C 45.191406 -100.113281 42.875 -94.570312 40.9375 -89 C 39 -83.425781 37.328125 -78.523438 35.921875 -74.296875 C 35.679688 -73.710938 35.796875 -73.1875 36.265625 -72.71875 Z M 36.265625 -72.71875 "/></g></g></g><g fill="#f7f7f7" fill-opacity="1"><g transform="translate(92.174017, 153.82406)"><g><path d="M 0.359375 -44.71875 C -0.234375 -44.71875 -0.820312 -44.953125 -1.40625 -45.421875 C -2.582031 -46.128906 -3.347656 -47.066406 -3.703125 -48.234375 C -4.171875 -49.765625 -4.34375 -51.410156 -4.21875 -53.171875 C -3.75 -57.046875 -2.75 -60.742188 -1.21875 -64.265625 C 0.300781 -67.785156 2.289062 -71.070312 4.75 -74.125 C 5.6875 -75.0625 6.628906 -75.585938 7.578125 -75.703125 C 8.160156 -75.828125 8.710938 -75.914062 9.234375 -75.96875 C 9.765625 -76.03125 10.265625 -76.117188 10.734375 -76.234375 C 11.328125 -76.472656 11.859375 -76.117188 12.328125 -75.171875 C 12.910156 -74.359375 13.320312 -73.1875 13.5625 -71.65625 C 13.675781 -70.601562 13.820312 -69.925781 14 -69.625 C 14.175781 -69.332031 14.675781 -69.1875 15.5 -69.1875 L 16.546875 -69.1875 C 18.191406 -69.3125 19.832031 -69.488281 21.46875 -69.71875 C 23.113281 -69.957031 24.703125 -70.367188 26.234375 -70.953125 C 26.460938 -71.066406 26.753906 -71.179688 27.109375 -71.296875 C 27.460938 -71.421875 27.875 -71.539062 28.34375 -71.65625 C 29.164062 -71.65625 29.695312 -71.363281 29.9375 -70.78125 C 30.28125 -69.84375 30.039062 -69.3125 29.21875 -69.1875 C 26.875 -68.25 24.554688 -67.632812 22.265625 -67.34375 C 19.984375 -67.050781 17.609375 -66.90625 15.140625 -66.90625 C 14.910156 -67.019531 14.554688 -67.078125 14.078125 -67.078125 C 13.140625 -67.078125 12.492188 -66.375 12.140625 -64.96875 C 11.671875 -63.4375 10.910156 -61.320312 9.859375 -58.625 C 8.804688 -55.925781 7.601562 -53.34375 6.25 -50.875 C 4.894531 -48.414062 3.570312 -46.65625 2.28125 -45.59375 C 1.695312 -45.007812 1.054688 -44.71875 0.359375 -44.71875 Z M -0.875 -47.890625 C 0.0625 -47.890625 1.054688 -48.59375 2.109375 -50 C 3.171875 -51.40625 4.195312 -53.101562 5.1875 -55.09375 C 6.1875 -57.09375 7.066406 -59.03125 7.828125 -60.90625 C 8.597656 -62.789062 9.097656 -64.144531 9.328125 -64.96875 C 9.921875 -66.726562 10.128906 -67.929688 9.953125 -68.578125 C 9.773438 -69.222656 9.039062 -70.191406 7.75 -71.484375 C 7.507812 -71.710938 7.273438 -71.828125 7.046875 -71.828125 C 6.804688 -71.710938 6.628906 -71.597656 6.515625 -71.484375 C 6.398438 -71.367188 6.28125 -71.25 6.15625 -71.125 C 1.8125 -65.613281 -0.707031 -59.453125 -1.40625 -52.640625 C -1.519531 -51.816406 -1.609375 -50.992188 -1.671875 -50.171875 C -1.734375 -49.359375 -1.46875 -48.597656 -0.875 -47.890625 Z M 10.734375 -71.125 C 10.972656 -71.363281 11.09375 -71.71875 11.09375 -72.1875 C 11.09375 -72.769531 10.972656 -73.0625 10.734375 -73.0625 C 10.390625 -73.300781 10.097656 -73.066406 9.859375 -72.359375 C 9.742188 -71.535156 10.035156 -71.125 10.734375 -71.125 Z M 10.734375 -71.125 "/></g></g></g><g fill="#f7f7f7" fill-opacity="1"><g transform="translate(118.231266, 153.82406)"><g><path d="M 5.640625 -37.15625 C 2.117188 -37.15625 -0.460938 -38.851562 -2.109375 -42.25 C -2.703125 -43.3125 -3.113281 -44.488281 -3.34375 -45.78125 C -3.582031 -47.070312 -3.640625 -48.890625 -3.515625 -51.234375 C -3.285156 -54.171875 -2.640625 -57.398438 -1.578125 -60.921875 C -0.523438 -64.441406 0.878906 -67.898438 2.640625 -71.296875 C 4.398438 -74.703125 6.484375 -77.640625 8.890625 -80.109375 C 11.296875 -82.578125 14.023438 -84.21875 17.078125 -85.03125 C 17.191406 -85.15625 17.546875 -85.21875 18.140625 -85.21875 C 19.546875 -85.21875 20.597656 -84.570312 21.296875 -83.28125 C 21.773438 -82.457031 22.015625 -81.8125 22.015625 -81.34375 C 22.015625 -80.050781 21.863281 -78.757812 21.5625 -77.46875 C 21.269531 -76.175781 20.65625 -75.003906 19.71875 -73.953125 C 19.363281 -73.472656 18.835938 -73.234375 18.140625 -73.234375 L 17.4375 -73.234375 C 17.082031 -73.472656 16.785156 -73.769531 16.546875 -74.125 C 16.191406 -74.476562 16.367188 -74.769531 17.078125 -75 C 18.015625 -75.351562 18.601562 -76.054688 18.84375 -77.109375 C 19.070312 -78.054688 19.421875 -78.9375 19.890625 -79.75 C 20.242188 -80.695312 20.066406 -81.460938 19.359375 -82.046875 C 19.128906 -82.273438 18.78125 -82.390625 18.3125 -82.390625 C 17.726562 -82.390625 17.140625 -82.21875 16.546875 -81.875 C 16.191406 -81.632812 15.835938 -81.425781 15.484375 -81.25 C 15.140625 -81.070312 14.847656 -80.867188 14.609375 -80.640625 C 12.023438 -79.109375 9.734375 -76.847656 7.734375 -73.859375 C 5.742188 -70.867188 4.101562 -67.671875 2.8125 -64.265625 C 1.519531 -60.859375 0.523438 -57.6875 -0.171875 -54.75 C -0.410156 -53.457031 -0.617188 -52.222656 -0.796875 -51.046875 C -0.972656 -49.878906 -1 -48.648438 -0.875 -47.359375 C -0.875 -45.835938 -0.550781 -44.164062 0.09375 -42.34375 C 0.738281 -40.519531 2 -39.609375 3.875 -39.609375 C 5.988281 -39.609375 8.363281 -40.429688 11 -42.078125 C 13.644531 -43.722656 16.140625 -45.628906 18.484375 -47.796875 C 20.835938 -49.972656 22.539062 -51.878906 23.59375 -53.515625 C 25.238281 -55.753906 26.878906 -57.988281 28.515625 -60.21875 C 30.160156 -62.445312 31.804688 -64.675781 33.453125 -66.90625 L 36.625 -70.78125 C 36.976562 -71.132812 37.269531 -71.3125 37.5 -71.3125 C 37.738281 -71.3125 37.914062 -71.25 38.03125 -71.125 C 38.382812 -70.769531 38.617188 -70.300781 38.734375 -69.71875 C 38.734375 -69.019531 38.441406 -68.375 37.859375 -67.78125 C 36.679688 -66.257812 35.5625 -64.734375 34.5 -63.203125 C 33.445312 -61.679688 32.394531 -60.15625 31.34375 -58.625 C 29.226562 -55.457031 26.9375 -52.46875 24.46875 -49.65625 C 23.300781 -48.125 21.570312 -46.390625 19.28125 -44.453125 C 16.988281 -42.515625 14.640625 -40.8125 12.234375 -39.34375 C 9.828125 -37.882812 7.628906 -37.15625 5.640625 -37.15625 Z M 5.640625 -37.15625 "/></g></g></g><g fill="#f7f7f7" fill-opacity="1"><g transform="translate(152.915587, 153.82406)"><g><path d="M 0.171875 -44.1875 C -2.992188 -44.1875 -4.867188 -45.832031 -5.453125 -49.125 C -5.691406 -50.53125 -5.691406 -51.878906 -5.453125 -53.171875 C -4.867188 -56.929688 -3.753906 -60.453125 -2.109375 -63.734375 C -0.460938 -67.023438 1.472656 -70.191406 3.703125 -73.234375 C 4.171875 -73.828125 4.640625 -74.066406 5.109375 -73.953125 C 5.335938 -73.953125 5.628906 -73.6875 5.984375 -73.15625 C 6.335938 -72.625 6.394531 -72.242188 6.15625 -72.015625 C 5.925781 -71.546875 5.722656 -71.132812 5.546875 -70.78125 C 5.367188 -70.425781 5.164062 -70.128906 4.9375 -69.890625 C 3.164062 -67.546875 1.722656 -65.050781 0.609375 -62.40625 C -0.503906 -59.769531 -1.46875 -57.046875 -2.28125 -54.234375 C -2.632812 -52.117188 -2.753906 -50.238281 -2.640625 -48.59375 C -2.640625 -47.414062 -2.113281 -46.828125 -1.0625 -46.828125 L -0.359375 -47.015625 C 0.703125 -47.128906 1.878906 -47.773438 3.171875 -48.953125 C 6.453125 -50.941406 9.207031 -53.226562 11.4375 -55.8125 L 23.0625 -68.140625 C 23.300781 -68.367188 23.535156 -68.628906 23.765625 -68.921875 C 24.003906 -69.222656 24.238281 -69.488281 24.46875 -69.71875 C 24.707031 -69.957031 24.941406 -70.191406 25.171875 -70.421875 C 25.410156 -70.660156 25.644531 -70.894531 25.875 -71.125 C 26.113281 -71.363281 26.347656 -71.484375 26.578125 -71.484375 C 27.054688 -71.484375 27.378906 -71.273438 27.546875 -70.859375 C 27.722656 -70.453125 27.875 -70.070312 28 -69.71875 C 28 -69.132812 27.265625 -67.988281 25.796875 -66.28125 C 24.328125 -64.582031 22.503906 -62.644531 20.328125 -60.46875 C 18.160156 -58.300781 15.960938 -56.160156 13.734375 -54.046875 C 11.503906 -51.929688 9.566406 -50.140625 7.921875 -48.671875 C 6.273438 -47.210938 5.335938 -46.363281 5.109375 -46.125 C 4.867188 -46.007812 4.660156 -45.890625 4.484375 -45.765625 C 4.304688 -45.648438 4.101562 -45.535156 3.875 -45.421875 C 3.757812 -45.304688 3.582031 -45.1875 3.34375 -45.0625 C 3.113281 -44.945312 2.878906 -44.832031 2.640625 -44.71875 C 1.816406 -44.363281 0.992188 -44.1875 0.171875 -44.1875 Z M 8.625 -75.359375 C 8.507812 -75.359375 8.332031 -75.472656 8.09375 -75.703125 C 7.75 -75.941406 7.578125 -76.296875 7.578125 -76.765625 C 7.453125 -76.992188 7.507812 -77.226562 7.75 -77.46875 C 8.101562 -78.289062 8.570312 -79.113281 9.15625 -79.9375 C 9.738281 -80.757812 10.441406 -81.578125 11.265625 -82.390625 C 11.503906 -82.390625 11.679688 -82.390625 11.796875 -82.390625 C 11.910156 -82.390625 11.96875 -82.390625 11.96875 -82.390625 C 12.4375 -82.390625 12.671875 -82.097656 12.671875 -81.515625 C 12.671875 -81.160156 12.613281 -80.925781 12.5 -80.8125 C 12.257812 -80.34375 11.992188 -79.898438 11.703125 -79.484375 C 11.410156 -79.078125 11.148438 -78.640625 10.921875 -78.171875 C 10.679688 -77.703125 10.382812 -77.289062 10.03125 -76.9375 C 9.675781 -76.582031 9.382812 -76.171875 9.15625 -75.703125 C 8.914062 -75.472656 8.738281 -75.359375 8.625 -75.359375 Z M 8.625 -75.359375 "/></g></g></g><g fill="#f7f7f7" fill-opacity="1"><g transform="translate(176.860089, 153.82406)"><g><path d="M 0.359375 -44.71875 C -0.234375 -44.71875 -0.820312 -44.953125 -1.40625 -45.421875 C -2.582031 -46.128906 -3.347656 -47.066406 -3.703125 -48.234375 C -4.171875 -49.765625 -4.34375 -51.410156 -4.21875 -53.171875 C -3.75 -57.046875 -2.75 -60.742188 -1.21875 -64.265625 C 0.300781 -67.785156 2.289062 -71.070312 4.75 -74.125 C 5.6875 -75.0625 6.628906 -75.585938 7.578125 -75.703125 C 8.160156 -75.828125 8.710938 -75.914062 9.234375 -75.96875 C 9.765625 -76.03125 10.265625 -76.117188 10.734375 -76.234375 C 11.328125 -76.472656 11.859375 -76.117188 12.328125 -75.171875 C 12.910156 -74.359375 13.320312 -73.1875 13.5625 -71.65625 C 13.675781 -70.601562 13.820312 -69.925781 14 -69.625 C 14.175781 -69.332031 14.675781 -69.1875 15.5 -69.1875 L 16.546875 -69.1875 C 18.191406 -69.3125 19.832031 -69.488281 21.46875 -69.71875 C 23.113281 -69.957031 24.703125 -70.367188 26.234375 -70.953125 C 26.460938 -71.066406 26.753906 -71.179688 27.109375 -71.296875 C 27.460938 -71.421875 27.875 -71.539062 28.34375 -71.65625 C 29.164062 -71.65625 29.695312 -71.363281 29.9375 -70.78125 C 30.28125 -69.84375 30.039062 -69.3125 29.21875 -69.1875 C 26.875 -68.25 24.554688 -67.632812 22.265625 -67.34375 C 19.984375 -67.050781 17.609375 -66.90625 15.140625 -66.90625 C 14.910156 -67.019531 14.554688 -67.078125 14.078125 -67.078125 C 13.140625 -67.078125 12.492188 -66.375 12.140625 -64.96875 C 11.671875 -63.4375 10.910156 -61.320312 9.859375 -58.625 C 8.804688 -55.925781 7.601562 -53.34375 6.25 -50.875 C 4.894531 -48.414062 3.570312 -46.65625 2.28125 -45.59375 C 1.695312 -45.007812 1.054688 -44.71875 0.359375 -44.71875 Z M -0.875 -47.890625 C 0.0625 -47.890625 1.054688 -48.59375 2.109375 -50 C 3.171875 -51.40625 4.195312 -53.101562 5.1875 -55.09375 C 6.1875 -57.09375 7.066406 -59.03125 7.828125 -60.90625 C 8.597656 -62.789062 9.097656 -64.144531 9.328125 -64.96875 C 9.921875 -66.726562 10.128906 -67.929688 9.953125 -68.578125 C 9.773438 -69.222656 9.039062 -70.191406 7.75 -71.484375 C 7.507812 -71.710938 7.273438 -71.828125 7.046875 -71.828125 C 6.804688 -71.710938 6.628906 -71.597656 6.515625 -71.484375 C 6.398438 -71.367188 6.28125 -71.25 6.15625 -71.125 C 1.8125 -65.613281 -0.707031 -59.453125 -1.40625 -52.640625 C -1.519531 -51.816406 -1.609375 -50.992188 -1.671875 -50.171875 C -1.734375 -49.359375 -1.46875 -48.597656 -0.875 -47.890625 Z M 10.734375 -71.125 C 10.972656 -71.363281 11.09375 -71.71875 11.09375 -72.1875 C 11.09375 -72.769531 10.972656 -73.0625 10.734375 -73.0625 C 10.390625 -73.300781 10.097656 -73.066406 9.859375 -72.359375 C 9.742188 -71.535156 10.035156 -71.125 10.734375 -71.125 Z M 10.734375 -71.125 "/></g></g></g><g fill="#f7f7f7" fill-opacity="1"><g transform="translate(202.917339, 153.82406)"><g/></g></g><g fill="#f7f7f7" fill-opacity="1"><g transform="translate(246.932964, 153.82406)"><g><path d="M 25.53125 -11.265625 C 24.820312 -11.265625 24.289062 -11.554688 23.9375 -12.140625 C 23.46875 -12.734375 23.117188 -13.617188 22.890625 -14.796875 C 22.304688 -16.898438 21.835938 -19.035156 21.484375 -21.203125 C 21.128906 -23.378906 20.832031 -25.582031 20.59375 -27.8125 C 20.476562 -28.75 20.390625 -29.6875 20.328125 -30.625 C 20.273438 -31.570312 20.191406 -32.515625 20.078125 -33.453125 C 19.953125 -34.390625 19.859375 -35.296875 19.796875 -36.171875 C 19.742188 -37.054688 19.660156 -37.96875 19.546875 -38.90625 C 19.304688 -40.195312 18.835938 -40.84375 18.140625 -40.84375 C 18.015625 -40.84375 17.921875 -40.84375 17.859375 -40.84375 C 17.804688 -40.84375 17.722656 -40.84375 17.609375 -40.84375 C 17.492188 -40.726562 17.316406 -40.671875 17.078125 -40.671875 C 16.722656 -40.554688 16.253906 -40.5 15.671875 -40.5 C 15.429688 -40.5 15.191406 -40.5 14.953125 -40.5 C 14.722656 -40.5 14.492188 -40.5 14.265625 -40.5 C 11.328125 -40.5 8.6875 -41.144531 6.34375 -42.4375 C 3.632812 -43.84375 1.78125 -45.75 0.78125 -48.15625 C -0.207031 -50.5625 -0.175781 -53.171875 0.875 -55.984375 C 1.226562 -57.046875 1.90625 -58.425781 2.90625 -60.125 C 3.90625 -61.820312 5.019531 -63.40625 6.25 -64.875 C 7.476562 -66.34375 8.625 -67.195312 9.6875 -67.4375 C 10.039062 -67.550781 10.507812 -67.316406 11.09375 -66.734375 C 11.445312 -66.265625 11.390625 -65.789062 10.921875 -65.3125 C 9.035156 -63.4375 7.390625 -61.441406 5.984375 -59.328125 C 4.691406 -57.210938 3.8125 -55.039062 3.34375 -52.8125 C 2.757812 -50.238281 3.082031 -48.039062 4.3125 -46.21875 C 5.539062 -44.394531 7.445312 -43.304688 10.03125 -42.953125 L 14.609375 -42.953125 C 16.835938 -43.191406 18.128906 -43.570312 18.484375 -44.09375 C 18.835938 -44.625 19.015625 -46.003906 19.015625 -48.234375 C 19.015625 -57.742188 19.515625 -67.015625 20.515625 -76.046875 C 21.515625 -85.085938 23.300781 -94.1875 25.875 -103.34375 L 29.578125 -116.90625 C 29.691406 -117.488281 29.835938 -118.070312 30.015625 -118.65625 C 30.191406 -119.25 30.335938 -119.835938 30.453125 -120.421875 C 30.804688 -121.710938 30.984375 -122.945312 30.984375 -124.125 C 30.984375 -124.832031 31.335938 -125.1875 32.046875 -125.1875 C 32.273438 -125.300781 32.566406 -125.207031 32.921875 -124.90625 C 33.273438 -124.613281 33.453125 -124.296875 33.453125 -123.953125 C 33.679688 -122.660156 33.503906 -121.3125 32.921875 -119.90625 C 32.222656 -116.851562 31.375 -113.300781 30.375 -109.25 C 29.375 -105.195312 28.429688 -101.203125 27.546875 -97.265625 C 26.671875 -93.335938 25.941406 -89.90625 25.359375 -86.96875 C 24.296875 -81.570312 23.472656 -76.054688 22.890625 -70.421875 C 22.304688 -64.785156 22.015625 -58.914062 22.015625 -52.8125 C 22.015625 -52.582031 22.015625 -52.289062 22.015625 -51.9375 C 22.015625 -51.582031 22.015625 -51.226562 22.015625 -50.875 C 22.015625 -50.53125 22.015625 -50.179688 22.015625 -49.828125 C 22.015625 -49.472656 22.070312 -49.117188 22.1875 -48.765625 C 22.1875 -48.535156 22.1875 -48.269531 22.1875 -47.96875 C 22.1875 -47.675781 22.1875 -47.414062 22.1875 -47.1875 C 22.1875 -46.59375 22.476562 -46.179688 23.0625 -45.953125 C 24.820312 -45.953125 26.054688 -46.710938 26.765625 -48.234375 L 27.109375 -50.703125 C 28.515625 -59.148438 30.710938 -67.71875 33.703125 -76.40625 C 36.703125 -85.09375 40.519531 -93.335938 45.15625 -101.140625 C 49.789062 -108.953125 55.160156 -115.847656 61.265625 -121.828125 C 61.859375 -122.304688 62.445312 -122.804688 63.03125 -123.328125 C 63.613281 -123.859375 64.203125 -124.359375 64.796875 -124.828125 C 65.378906 -125.296875 65.992188 -125.734375 66.640625 -126.140625 C 67.285156 -126.554688 67.960938 -126.878906 68.671875 -127.109375 C 70.191406 -127.929688 71.476562 -128.34375 72.53125 -128.34375 C 74.644531 -128.34375 76.171875 -126.46875 77.109375 -122.71875 C 77.578125 -121.070312 77.753906 -119.367188 77.640625 -117.609375 C 77.523438 -115.847656 77.234375 -114.144531 76.765625 -112.5 C 75.117188 -104.28125 72.066406 -95.972656 67.609375 -87.578125 C 63.148438 -79.191406 57.835938 -71.445312 51.671875 -64.34375 C 45.515625 -57.25 38.914062 -51.410156 31.875 -46.828125 C 30.34375 -46.003906 29.457031 -44.597656 29.21875 -42.609375 C 28.875 -38.265625 28.582031 -33.921875 28.34375 -29.578125 C 28.113281 -25.234375 27.9375 -20.890625 27.8125 -16.546875 C 27.8125 -16.316406 27.8125 -16.023438 27.8125 -15.671875 C 27.8125 -15.316406 27.8125 -15.023438 27.8125 -14.796875 C 27.8125 -13.847656 27.753906 -13.203125 27.640625 -12.859375 C 27.640625 -12.035156 27.113281 -11.503906 26.0625 -11.265625 Z M 23.765625 -26.765625 C 24.472656 -27.585938 24.882812 -28.378906 25 -29.140625 C 25.113281 -29.898438 25.234375 -30.691406 25.359375 -31.515625 L 25.875 -40.140625 C 25.875 -40.609375 25.9375 -40.960938 26.0625 -41.203125 C 26.0625 -41.671875 26 -42.019531 25.875 -42.25 C 25.875 -42.957031 25.523438 -43.191406 24.828125 -42.953125 C 23.296875 -42.609375 22.53125 -41.671875 22.53125 -40.140625 C 22.65625 -38.960938 22.773438 -37.847656 22.890625 -36.796875 C 23.003906 -35.742188 23.117188 -34.628906 23.234375 -33.453125 C 23.359375 -32.273438 23.445312 -31.15625 23.5 -30.09375 C 23.5625 -29.039062 23.648438 -27.929688 23.765625 -26.765625 Z M 30.984375 -50.53125 L 31.34375 -50.53125 C 31.695312 -50.53125 32.046875 -50.707031 32.390625 -51.0625 C 32.628906 -51.175781 32.835938 -51.289062 33.015625 -51.40625 C 33.191406 -51.53125 33.335938 -51.648438 33.453125 -51.765625 C 33.804688 -51.878906 34.273438 -52.226562 34.859375 -52.8125 C 44.367188 -60.332031 52.257812 -68.875 58.53125 -78.4375 C 64.8125 -88 69.773438 -98.535156 73.421875 -110.046875 C 74.117188 -112.148438 74.554688 -114.195312 74.734375 -116.1875 C 74.910156 -118.1875 75 -120.304688 75 -122.546875 C 75 -123.242188 74.941406 -123.648438 74.828125 -123.765625 C 74.710938 -125.179688 74.179688 -125.890625 73.234375 -125.890625 C 72.296875 -125.890625 71.09375 -125.414062 69.625 -124.46875 C 68.164062 -123.53125 67.082031 -122.769531 66.375 -122.1875 C 59.914062 -117.019531 54.3125 -110.59375 49.5625 -102.90625 C 44.8125 -95.21875 40.910156 -87.085938 37.859375 -78.515625 C 34.804688 -69.953125 32.457031 -61.617188 30.8125 -53.515625 C 30.695312 -53.285156 30.640625 -53.023438 30.640625 -52.734375 C 30.640625 -52.441406 30.578125 -52.175781 30.453125 -51.9375 C 30.222656 -51.351562 30.398438 -50.882812 30.984375 -50.53125 Z M 30.984375 -50.53125 "/></g></g></g><g fill="#f7f7f7" fill-opacity="1"><g transform="translate(313.484592, 153.82406)"><g><path d="M 8.28125 -47.71875 C 7.101562 -47.71875 5.867188 -48.1875 4.578125 -49.125 C 1.171875 -51.707031 -0.472656 -55.171875 -0.359375 -59.515625 C -0.359375 -61.859375 0.164062 -64.671875 1.21875 -67.953125 C 2.28125 -71.242188 3.75 -74.148438 5.625 -76.671875 C 7.507812 -79.191406 9.742188 -80.453125 12.328125 -80.453125 C 13.617188 -80.453125 14.671875 -79.984375 15.484375 -79.046875 C 16.304688 -78.109375 16.660156 -76.878906 16.546875 -75.359375 C 16.429688 -73.710938 15.664062 -71.945312 14.25 -70.0625 C 12.84375 -68.1875 11.4375 -66.957031 10.03125 -66.375 C 9.914062 -66.257812 9.625 -66.203125 9.15625 -66.203125 C 8.332031 -66.203125 7.742188 -66.550781 7.390625 -67.25 C 6.921875 -67.957031 6.628906 -68.488281 6.515625 -68.84375 C 6.398438 -69.070312 6.253906 -69.332031 6.078125 -69.625 C 5.898438 -69.925781 5.691406 -70.191406 5.453125 -70.421875 C 4.398438 -69.128906 3.578125 -67.101562 2.984375 -64.34375 C 2.398438 -61.59375 2.109375 -59.394531 2.109375 -57.75 C 2.222656 -57.394531 2.28125 -56.863281 2.28125 -56.15625 C 2.28125 -55.457031 2.34375 -54.929688 2.46875 -54.578125 C 3.40625 -51.878906 5.046875 -50.53125 7.390625 -50.53125 C 7.515625 -50.53125 7.722656 -50.554688 8.015625 -50.609375 C 8.304688 -50.671875 8.6875 -50.757812 9.15625 -50.875 C 12.5625 -52.050781 15.875 -54.34375 19.09375 -57.75 C 22.320312 -61.15625 24.816406 -64.5 26.578125 -67.78125 L 28.515625 -70.953125 C 28.640625 -71.421875 28.9375 -71.65625 29.40625 -71.65625 C 29.632812 -71.65625 29.8125 -71.597656 29.9375 -71.484375 C 30.40625 -71.367188 30.640625 -70.957031 30.640625 -70.25 C 30.867188 -69.664062 30.691406 -69.019531 30.109375 -68.3125 C 27.878906 -64.4375 25.207031 -60.503906 22.09375 -56.515625 C 18.988281 -52.523438 15.203125 -49.765625 10.734375 -48.234375 C 9.910156 -47.890625 9.09375 -47.71875 8.28125 -47.71875 Z M 8.984375 -69.375 C 12.035156 -71.363281 13.796875 -73.648438 14.265625 -76.234375 C 14.378906 -77.285156 13.910156 -77.753906 12.859375 -77.640625 C 11.441406 -77.410156 10.148438 -76.707031 8.984375 -75.53125 C 7.566406 -74.59375 6.800781 -73.535156 6.6875 -72.359375 C 6.457031 -71.773438 6.691406 -71.363281 7.390625 -71.125 C 7.859375 -70.769531 8.210938 -70.300781 8.453125 -69.71875 C 8.453125 -69.832031 8.628906 -69.71875 8.984375 -69.375 Z M 16.375 -82.578125 C 16.257812 -82.578125 16.082031 -82.691406 15.84375 -82.921875 C 15.488281 -83.160156 15.3125 -83.515625 15.3125 -83.984375 C 15.195312 -84.210938 15.257812 -84.445312 15.5 -84.6875 C 15.84375 -85.507812 16.304688 -86.332031 16.890625 -87.15625 C 17.484375 -87.976562 18.191406 -88.796875 19.015625 -89.609375 C 19.242188 -89.609375 19.414062 -89.609375 19.53125 -89.609375 C 19.65625 -89.609375 19.71875 -89.609375 19.71875 -89.609375 C 20.1875 -89.609375 20.421875 -89.316406 20.421875 -88.734375 C 20.421875 -88.378906 20.363281 -88.144531 20.25 -88.03125 C 20.007812 -87.5625 19.742188 -87.117188 19.453125 -86.703125 C 19.160156 -86.296875 18.894531 -85.859375 18.65625 -85.390625 C 18.425781 -84.921875 18.132812 -84.507812 17.78125 -84.15625 C 17.425781 -83.800781 17.132812 -83.390625 16.90625 -82.921875 C 16.664062 -82.691406 16.488281 -82.578125 16.375 -82.578125 Z M 16.375 -82.578125 "/></g></g></g><g fill="#f7f7f7" fill-opacity="1"><g transform="translate(340.070057, 153.82406)"><g><path d="M 8.984375 -19.71875 C 6.160156 -19.71875 4.164062 -21.1875 3 -24.125 C 2.40625 -26.238281 2.078125 -28.347656 2.015625 -30.453125 C 1.960938 -32.566406 2.050781 -34.679688 2.28125 -36.796875 C 3.457031 -43.953125 5.597656 -50.347656 8.703125 -55.984375 C 11.816406 -61.617188 15.429688 -67.3125 19.546875 -73.0625 C 19.773438 -73.414062 20.1875 -73.882812 20.78125 -74.46875 C 21.007812 -74.820312 21.242188 -75.351562 21.484375 -76.0625 C 21.242188 -76.175781 21.066406 -76.257812 20.953125 -76.3125 C 20.835938 -76.375 20.78125 -76.40625 20.78125 -76.40625 C 20.425781 -76.40625 20.191406 -76.347656 20.078125 -76.234375 C 19.597656 -76.003906 19.300781 -75.828125 19.1875 -75.703125 C 16.601562 -74.410156 14.050781 -73.085938 11.53125 -71.734375 C 9.007812 -70.390625 6.457031 -69.015625 3.875 -67.609375 C 3.164062 -67.140625 2.109375 -66.609375 0.703125 -66.015625 C -0.703125 -65.429688 -1.875 -65.140625 -2.8125 -65.140625 C -3.988281 -65.140625 -5.046875 -65.609375 -5.984375 -66.546875 C -6.921875 -67.722656 -7.15625 -69.25 -6.6875 -71.125 C -6.570312 -71.59375 -6.453125 -72.003906 -6.328125 -72.359375 C -6.210938 -72.710938 -6.097656 -72.945312 -5.984375 -73.0625 C -4.335938 -76.351562 -2.109375 -79.960938 0.703125 -83.890625 C 3.523438 -87.828125 6.632812 -90.554688 10.03125 -92.078125 C 10.269531 -92.191406 10.679688 -92.25 11.265625 -92.25 C 12.203125 -92.25 12.96875 -91.78125 13.5625 -90.84375 C 14.144531 -89.550781 14.257812 -88.203125 13.90625 -86.796875 C 12.726562 -84.210938 11.320312 -81.515625 9.6875 -78.703125 C 9.5625 -78.460938 9.410156 -78.164062 9.234375 -77.8125 C 9.066406 -77.46875 8.863281 -77.175781 8.625 -76.9375 C 8.394531 -76.582031 8.191406 -76.226562 8.015625 -75.875 C 7.835938 -75.53125 7.628906 -75.179688 7.390625 -74.828125 C 6.921875 -74.359375 6.863281 -73.710938 7.21875 -72.890625 C 9.914062 -74.535156 12.613281 -76.03125 15.3125 -77.375 C 18.007812 -78.726562 20.769531 -80.050781 23.59375 -81.34375 C 23.820312 -81.34375 24 -81.398438 24.125 -81.515625 C 24.125 -81.515625 24.148438 -81.515625 24.203125 -81.515625 C 24.265625 -81.515625 24.351562 -81.515625 24.46875 -81.515625 C 25.40625 -81.753906 25.875 -81.875 25.875 -81.875 C 26.582031 -81.875 27.054688 -81.578125 27.296875 -80.984375 C 27.992188 -79.929688 27.992188 -78.9375 27.296875 -78 L 25.171875 -75.359375 C 20.710938 -69.722656 16.632812 -63.820312 12.9375 -57.65625 C 9.238281 -51.5 6.742188 -44.835938 5.453125 -37.671875 C 4.753906 -34.148438 4.695312 -30.21875 5.28125 -25.875 C 5.75 -23.300781 6.628906 -22.015625 7.921875 -22.015625 C 8.628906 -22.015625 9.742188 -22.421875 11.265625 -23.234375 C 12.203125 -23.828125 13.023438 -24.503906 13.734375 -25.265625 C 14.441406 -26.023438 15.085938 -26.816406 15.671875 -27.640625 C 16.023438 -28.222656 16.375 -28.515625 16.71875 -28.515625 C 16.84375 -28.515625 17.019531 -28.398438 17.25 -28.171875 C 18.3125 -27.703125 18.546875 -27 17.953125 -26.0625 C 16.429688 -23.238281 14.085938 -21.242188 10.921875 -20.078125 C 10.566406 -19.953125 10.238281 -19.859375 9.9375 -19.796875 C 9.644531 -19.742188 9.328125 -19.71875 8.984375 -19.71875 Z M -3.515625 -67.953125 L -3.171875 -67.953125 C -1.992188 -68.304688 -0.9375 -68.75 0 -69.28125 C 0.9375 -69.8125 1.695312 -70.660156 2.28125 -71.828125 C 2.757812 -72.890625 3.46875 -74.003906 4.40625 -75.171875 C 4.757812 -75.765625 5.109375 -76.320312 5.453125 -76.84375 C 5.804688 -77.375 6.101562 -77.9375 6.34375 -78.53125 C 7.28125 -80.050781 8.160156 -81.546875 8.984375 -83.015625 C 9.804688 -84.484375 10.507812 -86.035156 11.09375 -87.671875 C 11.09375 -87.910156 10.972656 -88.148438 10.734375 -88.390625 C 10.503906 -88.390625 10.328125 -88.390625 10.203125 -88.390625 C 10.085938 -88.390625 10.03125 -88.390625 10.03125 -88.390625 C 8.269531 -87.328125 6.363281 -85.59375 4.3125 -83.1875 C 2.257812 -80.78125 0.441406 -78.285156 -1.140625 -75.703125 C -2.722656 -73.117188 -3.75 -70.832031 -4.21875 -68.84375 C -4.21875 -68.375 -3.984375 -68.078125 -3.515625 -67.953125 Z M 7.046875 -72.890625 L 7.21875 -72.890625 L 7.046875 -73.0625 Z M 7.046875 -72.890625 "/></g></g></g><g fill="#f7f7f7" fill-opacity="1"><g transform="translate(368.240053, 153.82406)"><g><path d="M 8.28125 -47.71875 C 7.101562 -47.71875 5.867188 -48.1875 4.578125 -49.125 C 1.171875 -51.707031 -0.472656 -55.171875 -0.359375 -59.515625 C -0.359375 -61.859375 0.164062 -64.671875 1.21875 -67.953125 C 2.28125 -71.242188 3.75 -74.148438 5.625 -76.671875 C 7.507812 -79.191406 9.742188 -80.453125 12.328125 -80.453125 C 13.617188 -80.453125 14.671875 -79.984375 15.484375 -79.046875 C 16.304688 -78.109375 16.660156 -76.878906 16.546875 -75.359375 C 16.429688 -73.710938 15.664062 -71.945312 14.25 -70.0625 C 12.84375 -68.1875 11.4375 -66.957031 10.03125 -66.375 C 9.914062 -66.257812 9.625 -66.203125 9.15625 -66.203125 C 8.332031 -66.203125 7.742188 -66.550781 7.390625 -67.25 C 6.921875 -67.957031 6.628906 -68.488281 6.515625 -68.84375 C 6.398438 -69.070312 6.253906 -69.332031 6.078125 -69.625 C 5.898438 -69.925781 5.691406 -70.191406 5.453125 -70.421875 C 4.398438 -69.128906 3.578125 -67.101562 2.984375 -64.34375 C 2.398438 -61.59375 2.109375 -59.394531 2.109375 -57.75 C 2.222656 -57.394531 2.28125 -56.863281 2.28125 -56.15625 C 2.28125 -55.457031 2.34375 -54.929688 2.46875 -54.578125 C 3.40625 -51.878906 5.046875 -50.53125 7.390625 -50.53125 C 7.515625 -50.53125 7.722656 -50.554688 8.015625 -50.609375 C 8.304688 -50.671875 8.6875 -50.757812 9.15625 -50.875 C 12.5625 -52.050781 15.875 -54.34375 19.09375 -57.75 C 22.320312 -61.15625 24.816406 -64.5 26.578125 -67.78125 L 28.515625 -70.953125 C 28.640625 -71.421875 28.9375 -71.65625 29.40625 -71.65625 C 29.632812 -71.65625 29.8125 -71.597656 29.9375 -71.484375 C 30.40625 -71.367188 30.640625 -70.957031 30.640625 -70.25 C 30.867188 -69.664062 30.691406 -69.019531 30.109375 -68.3125 C 27.878906 -64.4375 25.207031 -60.503906 22.09375 -56.515625 C 18.988281 -52.523438 15.203125 -49.765625 10.734375 -48.234375 C 9.910156 -47.890625 9.09375 -47.71875 8.28125 -47.71875 Z M 8.984375 -69.375 C 12.035156 -71.363281 13.796875 -73.648438 14.265625 -76.234375 C 14.378906 -77.285156 13.910156 -77.753906 12.859375 -77.640625 C 11.441406 -77.410156 10.148438 -76.707031 8.984375 -75.53125 C 7.566406 -74.59375 6.800781 -73.535156 6.6875 -72.359375 C 6.457031 -71.773438 6.691406 -71.363281 7.390625 -71.125 C 7.859375 -70.769531 8.210938 -70.300781 8.453125 -69.71875 C 8.453125 -69.832031 8.628906 -69.71875 8.984375 -69.375 Z M 8.984375 -69.375 "/></g></g></g><g fill="#f7f7f7" fill-opacity="1"><g transform="translate(394.825485, 153.82406)"><g><path d="M -3.703125 -1.9375 C -4.171875 -1.9375 -4.753906 -2.113281 -5.453125 -2.46875 C -7.335938 -3.289062 -8.046875 -4.582031 -7.578125 -6.34375 C -7.453125 -7.164062 -7.242188 -7.957031 -6.953125 -8.71875 C -6.660156 -9.476562 -6.335938 -10.210938 -5.984375 -10.921875 C -3.753906 -15.609375 -0.9375 -20.390625 2.46875 -25.265625 C 5.875 -30.140625 9.484375 -34.832031 13.296875 -39.34375 C 17.109375 -43.863281 20.773438 -47.882812 24.296875 -51.40625 C 25.816406 -52.9375 26.578125 -54.519531 26.578125 -56.15625 C 26.460938 -57.101562 26.226562 -57.722656 25.875 -58.015625 C 25.53125 -58.304688 24.882812 -58.453125 23.9375 -58.453125 C 17.957031 -57.273438 12.503906 -54.578125 7.578125 -50.359375 C 7.222656 -50.003906 6.867188 -49.828125 6.515625 -49.828125 C 6.273438 -49.828125 5.921875 -50.0625 5.453125 -50.53125 C 4.515625 -51.238281 4.398438 -51.941406 5.109375 -52.640625 C 5.335938 -52.878906 5.628906 -53.144531 5.984375 -53.4375 C 6.335938 -53.726562 6.628906 -53.992188 6.859375 -54.234375 C 7.097656 -54.460938 7.394531 -54.691406 7.75 -54.921875 C 8.101562 -55.160156 8.394531 -55.398438 8.625 -55.640625 C 15.90625 -61.859375 22.890625 -68.3125 29.578125 -75 C 30.046875 -75.46875 30.484375 -75.90625 30.890625 -76.3125 C 31.304688 -76.726562 31.691406 -77.171875 32.046875 -77.640625 C 32.515625 -78.109375 32.925781 -78.460938 33.28125 -78.703125 C 33.625 -79.054688 33.625 -79.46875 33.28125 -79.9375 C 33.15625 -80.28125 32.859375 -80.453125 32.390625 -80.453125 C 31.921875 -80.453125 31.628906 -80.394531 31.515625 -80.28125 C 31.398438 -80.164062 31.253906 -80.109375 31.078125 -80.109375 C 30.898438 -80.109375 30.691406 -80.050781 30.453125 -79.9375 C 29.285156 -79.582031 28.113281 -79.226562 26.9375 -78.875 C 25.757812 -78.519531 24.585938 -78.109375 23.421875 -77.640625 C 20.242188 -76.347656 17.070312 -75.054688 13.90625 -73.765625 C 10.738281 -72.472656 7.570312 -71.179688 4.40625 -69.890625 C 4.164062 -69.773438 3.988281 -69.6875 3.875 -69.625 C 3.757812 -69.570312 3.703125 -69.546875 3.703125 -69.546875 L 3.34375 -69.546875 C 1.9375 -69.546875 0.675781 -70.25 -0.4375 -71.65625 C -1.550781 -73.0625 -1.875 -74.410156 -1.40625 -75.703125 C -1.175781 -76.640625 -0.765625 -77.519531 -0.171875 -78.34375 C 0.765625 -79.75 2.113281 -81.421875 3.875 -83.359375 C 5.632812 -85.296875 7.570312 -87.023438 9.6875 -88.546875 C 11.800781 -90.078125 13.738281 -90.84375 15.5 -90.84375 C 17.601562 -90.84375 18.71875 -89.90625 18.84375 -88.03125 C 18.957031 -86.851562 18.660156 -85.679688 17.953125 -84.515625 C 17.367188 -83.566406 16.753906 -82.648438 16.109375 -81.765625 C 15.460938 -80.890625 14.726562 -80.046875 13.90625 -79.234375 C 13.675781 -78.992188 13.265625 -78.40625 12.671875 -77.46875 C 13.609375 -77.46875 14.398438 -77.554688 15.046875 -77.734375 C 15.691406 -77.910156 16.488281 -78.234375 17.4375 -78.703125 C 19.425781 -79.523438 21.414062 -80.285156 23.40625 -80.984375 C 25.40625 -81.691406 27.460938 -82.335938 29.578125 -82.921875 C 30.867188 -83.390625 32.335938 -83.625 33.984375 -83.625 C 35.972656 -83.394531 36.96875 -82.335938 36.96875 -80.453125 C 36.96875 -79.515625 36.675781 -78.578125 36.09375 -77.640625 L 33.984375 -75.171875 L 23.765625 -64.96875 C 23.535156 -64.726562 23.269531 -64.460938 22.96875 -64.171875 C 22.675781 -63.878906 22.414062 -63.613281 22.1875 -63.375 C 21.945312 -63.144531 21.707031 -62.882812 21.46875 -62.59375 C 21.238281 -62.300781 21.007812 -61.976562 20.78125 -61.625 C 21.363281 -61.269531 21.832031 -61.09375 22.1875 -61.09375 C 22.539062 -61.09375 22.773438 -61.148438 22.890625 -61.265625 C 23.003906 -61.265625 23.117188 -61.265625 23.234375 -61.265625 C 23.359375 -61.265625 23.476562 -61.265625 23.59375 -61.265625 C 25.707031 -61.265625 27.175781 -60.382812 28 -58.625 L 29.046875 -56.515625 C 29.867188 -56.753906 30.515625 -57.109375 30.984375 -57.578125 C 31.453125 -58.046875 31.921875 -58.515625 32.390625 -58.984375 C 34.617188 -60.972656 36.90625 -62.878906 39.25 -64.703125 C 41.601562 -66.523438 44.015625 -68.253906 46.484375 -69.890625 L 48.953125 -71.3125 C 49.066406 -71.425781 49.300781 -71.484375 49.65625 -71.484375 C 50.125 -71.484375 50.414062 -71.304688 50.53125 -70.953125 C 51.238281 -70.128906 51.238281 -69.367188 50.53125 -68.671875 C 50.175781 -68.429688 49.820312 -68.191406 49.46875 -67.953125 C 49.125 -67.722656 48.832031 -67.488281 48.59375 -67.25 C 46.71875 -65.957031 44.222656 -64.195312 41.109375 -61.96875 C 37.992188 -59.738281 35.085938 -57.363281 32.390625 -54.84375 C 29.691406 -52.320312 27.992188 -49.945312 27.296875 -47.71875 C 26.117188 -44.539062 24.53125 -40.957031 22.53125 -36.96875 C 20.539062 -32.976562 18.34375 -28.957031 15.9375 -24.90625 C 13.53125 -20.863281 11.035156 -17.082031 8.453125 -13.5625 C 5.867188 -10.039062 3.40625 -7.164062 1.0625 -4.9375 C 0.820312 -4.695312 0.523438 -4.488281 0.171875 -4.3125 C -0.179688 -4.132812 -0.472656 -3.929688 -0.703125 -3.703125 C -1.410156 -3.234375 -1.9375 -2.820312 -2.28125 -2.46875 C -2.632812 -2.113281 -3.109375 -1.9375 -3.703125 -1.9375 Z M -4.046875 -5.640625 C -3.816406 -5.515625 -3.640625 -5.515625 -3.515625 -5.640625 C -3.398438 -5.753906 -3.285156 -5.8125 -3.171875 -5.8125 C -3.054688 -5.8125 -2.9375 -5.867188 -2.8125 -5.984375 C -0.820312 -7.628906 0.992188 -9.445312 2.640625 -11.4375 C 4.285156 -13.4375 5.753906 -15.492188 7.046875 -17.609375 C 9.503906 -21.359375 11.847656 -25.140625 14.078125 -28.953125 C 16.316406 -32.773438 18.488281 -36.679688 20.59375 -40.671875 C 21.1875 -41.492188 21.421875 -42.195312 21.296875 -42.78125 L 20.953125 -42.78125 C 20.597656 -42.78125 20.300781 -42.660156 20.0625 -42.421875 C 19.832031 -42.191406 19.597656 -41.960938 19.359375 -41.734375 C 14.898438 -36.679688 10.53125 -31.21875 6.25 -25.34375 C 1.96875 -19.476562 -1.519531 -13.4375 -4.21875 -7.21875 C -4.457031 -6.28125 -4.398438 -5.753906 -4.046875 -5.640625 Z M 21.484375 -42.953125 C 21.597656 -43.078125 21.535156 -43.140625 21.296875 -43.140625 Z M 1.9375 -73.234375 C 3.457031 -73.234375 4.628906 -73.644531 5.453125 -74.46875 C 7.210938 -76.226562 8.941406 -78.046875 10.640625 -79.921875 C 12.347656 -81.804688 13.96875 -83.804688 15.5 -85.921875 C 15.5 -85.921875 15.523438 -85.976562 15.578125 -86.09375 C 15.640625 -86.207031 15.726562 -86.382812 15.84375 -86.625 L 15.84375 -87.328125 C 15.613281 -87.679688 15.378906 -87.738281 15.140625 -87.5 C 8.804688 -85.039062 4.113281 -80.695312 1.0625 -74.46875 C 1.0625 -73.882812 1.351562 -73.472656 1.9375 -73.234375 Z M 1.9375 -73.234375 "/></g></g></g><g fill="#f7f7f7" fill-opacity="1"><g transform="translate(441.658158, 153.82406)"><g/></g><g transform="translate(485.673766, 153.82406)"><g><path d="M 10.03125 0 C 8.863281 0.113281 8.28125 -0.351562 8.28125 -1.40625 C 8.15625 -1.519531 8.09375 -1.929688 8.09375 -2.640625 C 8.21875 -4.515625 8.28125 -6.421875 8.28125 -8.359375 C 8.28125 -10.296875 8.28125 -12.203125 8.28125 -14.078125 C 8.15625 -16.078125 8.125 -18.046875 8.1875 -19.984375 C 8.25 -21.921875 8.335938 -23.828125 8.453125 -25.703125 C 9.273438 -40.722656 11.472656 -54.925781 15.046875 -68.3125 C 18.628906 -81.695312 23.296875 -95.253906 29.046875 -108.984375 C 29.160156 -109.210938 29.273438 -109.445312 29.390625 -109.6875 C 29.515625 -109.925781 29.632812 -110.160156 29.75 -110.390625 C 29.988281 -110.742188 29.988281 -111.210938 29.75 -111.796875 C 29.050781 -111.566406 28.640625 -111.332031 28.515625 -111.09375 C 28.285156 -110.738281 27.9375 -110.328125 27.46875 -109.859375 C 25.820312 -107.984375 24.175781 -106.101562 22.53125 -104.21875 C 20.894531 -102.34375 19.253906 -100.46875 17.609375 -98.59375 C 15.960938 -96.71875 14.285156 -94.835938 12.578125 -92.953125 C 10.878906 -91.078125 9.210938 -89.203125 7.578125 -87.328125 L 3.515625 -83.09375 C 3.285156 -82.863281 3.082031 -82.660156 2.90625 -82.484375 C 2.726562 -82.304688 2.519531 -82.101562 2.28125 -81.875 C 2.050781 -81.632812 1.757812 -81.515625 1.40625 -81.515625 C 1.050781 -81.515625 0.640625 -81.75 0.171875 -82.21875 C -0.179688 -83.039062 -0.117188 -83.6875 0.359375 -84.15625 C 1.992188 -85.6875 3.546875 -87.210938 5.015625 -88.734375 C 6.484375 -90.265625 7.863281 -91.847656 9.15625 -93.484375 C 10.445312 -95.128906 11.765625 -96.773438 13.109375 -98.421875 C 14.460938 -100.066406 15.90625 -101.648438 17.4375 -103.171875 C 20.25 -106.335938 23.035156 -109.503906 25.796875 -112.671875 C 28.554688 -115.847656 31.285156 -119.019531 33.984375 -122.1875 C 35.035156 -123.238281 36.03125 -124.378906 36.96875 -125.609375 C 37.90625 -126.847656 38.785156 -128.234375 39.609375 -129.765625 C 40.898438 -132.109375 42.335938 -134.335938 43.921875 -136.453125 C 45.503906 -138.566406 47.117188 -140.617188 48.765625 -142.609375 C 49.117188 -142.960938 49.472656 -143.3125 49.828125 -143.65625 C 50.179688 -144.007812 50.53125 -144.363281 50.875 -144.71875 C 51.695312 -145.539062 52.519531 -146.1875 53.34375 -146.65625 C 53.457031 -146.78125 53.753906 -146.84375 54.234375 -146.84375 C 55.046875 -146.84375 55.570312 -146.367188 55.8125 -145.421875 C 56.164062 -144.597656 56.046875 -143.71875 55.453125 -142.78125 C 54.984375 -141.957031 54.457031 -141.164062 53.875 -140.40625 C 53.289062 -139.644531 52.703125 -138.972656 52.109375 -138.390625 C 50.585938 -136.503906 49.0625 -134.679688 47.53125 -132.921875 C 46.007812 -131.160156 44.425781 -129.34375 42.78125 -127.46875 C 40.550781 -124.769531 38.789062 -122.007812 37.5 -119.1875 C 28.8125 -102.050781 22.296875 -84.296875 17.953125 -65.921875 C 13.609375 -47.554688 11.4375 -28.8125 11.4375 -9.6875 C 11.675781 -9.5625 11.820312 -9.441406 11.875 -9.328125 C 11.9375 -9.210938 11.96875 -9.15625 11.96875 -9.15625 C 12.4375 -9.15625 12.847656 -9.445312 13.203125 -10.03125 C 16.492188 -14.488281 20.601562 -17.476562 25.53125 -19 C 30.457031 -20.53125 35.503906 -21.648438 40.671875 -22.359375 C 41.960938 -22.597656 43.164062 -22.890625 44.28125 -23.234375 C 45.394531 -23.585938 46.421875 -24.296875 47.359375 -25.359375 C 47.472656 -25.472656 47.707031 -25.53125 48.0625 -25.53125 C 48.769531 -25.53125 49.179688 -25.296875 49.296875 -24.828125 C 49.648438 -24.234375 49.535156 -23.644531 48.953125 -23.0625 C 47.660156 -22.007812 46.191406 -21.304688 44.546875 -20.953125 L 35.5625 -19.359375 C 30.863281 -18.660156 26.632812 -17.164062 22.875 -14.875 C 19.125 -12.582031 16.078125 -9.269531 13.734375 -4.9375 C 13.492188 -4.34375 13.203125 -3.753906 12.859375 -3.171875 C 12.378906 -2.234375 12.082031 -1.585938 11.96875 -1.234375 C 11.613281 -0.410156 10.96875 0 10.03125 0 Z M 10.03125 0 "/></g></g></g><g fill="#f7f7f7" fill-opacity="1"><g transform="translate(519.125655, 153.82406)"><g><path d="M 0.359375 -44.71875 C -0.234375 -44.71875 -0.820312 -44.953125 -1.40625 -45.421875 C -2.582031 -46.128906 -3.347656 -47.066406 -3.703125 -48.234375 C -4.171875 -49.765625 -4.34375 -51.410156 -4.21875 -53.171875 C -3.75 -57.046875 -2.75 -60.742188 -1.21875 -64.265625 C 0.300781 -67.785156 2.289062 -71.070312 4.75 -74.125 C 5.6875 -75.0625 6.628906 -75.585938 7.578125 -75.703125 C 8.160156 -75.828125 8.710938 -75.914062 9.234375 -75.96875 C 9.765625 -76.03125 10.265625 -76.117188 10.734375 -76.234375 C 11.328125 -76.472656 11.859375 -76.117188 12.328125 -75.171875 C 12.910156 -74.359375 13.320312 -73.1875 13.5625 -71.65625 C 13.675781 -70.601562 13.820312 -69.925781 14 -69.625 C 14.175781 -69.332031 14.675781 -69.1875 15.5 -69.1875 L 16.546875 -69.1875 C 18.191406 -69.3125 19.832031 -69.488281 21.46875 -69.71875 C 23.113281 -69.957031 24.703125 -70.367188 26.234375 -70.953125 C 26.460938 -71.066406 26.753906 -71.179688 27.109375 -71.296875 C 27.460938 -71.421875 27.875 -71.539062 28.34375 -71.65625 C 29.164062 -71.65625 29.695312 -71.363281 29.9375 -70.78125 C 30.28125 -69.84375 30.039062 -69.3125 29.21875 -69.1875 C 26.875 -68.25 24.554688 -67.632812 22.265625 -67.34375 C 19.984375 -67.050781 17.609375 -66.90625 15.140625 -66.90625 C 14.910156 -67.019531 14.554688 -67.078125 14.078125 -67.078125 C 13.140625 -67.078125 12.492188 -66.375 12.140625 -64.96875 C 11.671875 -63.4375 10.910156 -61.320312 9.859375 -58.625 C 8.804688 -55.925781 7.601562 -53.34375 6.25 -50.875 C 4.894531 -48.414062 3.570312 -46.65625 2.28125 -45.59375 C 1.695312 -45.007812 1.054688 -44.71875 0.359375 -44.71875 Z M -0.875 -47.890625 C 0.0625 -47.890625 1.054688 -48.59375 2.109375 -50 C 3.171875 -51.40625 4.195312 -53.101562 5.1875 -55.09375 C 6.1875 -57.09375 7.066406 -59.03125 7.828125 -60.90625 C 8.597656 -62.789062 9.097656 -64.144531 9.328125 -64.96875 C 9.921875 -66.726562 10.128906 -67.929688 9.953125 -68.578125 C 9.773438 -69.222656 9.039062 -70.191406 7.75 -71.484375 C 7.507812 -71.710938 7.273438 -71.828125 7.046875 -71.828125 C 6.804688 -71.710938 6.628906 -71.597656 6.515625 -71.484375 C 6.398438 -71.367188 6.28125 -71.25 6.15625 -71.125 C 1.8125 -65.613281 -0.707031 -59.453125 -1.40625 -52.640625 C -1.519531 -51.816406 -1.609375 -50.992188 -1.671875 -50.171875 C -1.734375 -49.359375 -1.46875 -48.597656 -0.875 -47.890625 Z M 10.734375 -71.125 C 10.972656 -71.363281 11.09375 -71.71875 11.09375 -72.1875 C 11.09375 -72.769531 10.972656 -73.0625 10.734375 -73.0625 C 10.390625 -73.300781 10.097656 -73.066406 9.859375 -72.359375 C 9.742188 -71.535156 10.035156 -71.125 10.734375 -71.125 Z M 12.328125 -78 C 12.203125 -78 12.023438 -78.113281 11.796875 -78.34375 C 11.441406 -78.582031 11.265625 -78.9375 11.265625 -79.40625 C 11.148438 -79.632812 11.207031 -79.867188 11.4375 -80.109375 C 11.789062 -80.929688 12.257812 -81.753906 12.84375 -82.578125 C 13.4375 -83.398438 14.144531 -84.21875 14.96875 -85.03125 C 15.195312 -85.03125 15.367188 -85.03125 15.484375 -85.03125 C 15.609375 -85.03125 15.671875 -85.03125 15.671875 -85.03125 C 16.140625 -85.03125 16.375 -84.738281 16.375 -84.15625 C 16.375 -83.800781 16.316406 -83.566406 16.203125 -83.453125 C 15.960938 -82.984375 15.695312 -82.539062 15.40625 -82.125 C 15.113281 -81.71875 14.847656 -81.28125 14.609375 -80.8125 C 14.378906 -80.34375 14.085938 -79.929688 13.734375 -79.578125 C 13.378906 -79.222656 13.085938 -78.8125 12.859375 -78.34375 C 12.617188 -78.113281 12.441406 -78 12.328125 -78 Z M 12.328125 -78 "/></g></g></g><g fill="#f7f7f7" fill-opacity="1"><g transform="translate(545.182888, 153.82406)"><g><path d="M 4.578125 20.59375 C 4.109375 20.59375 3.695312 20.421875 3.34375 20.078125 C 2.164062 18.546875 1.164062 15.957031 0.34375 12.3125 C -0.46875 8.675781 -1.164062 4.65625 -1.75 0.25 C -2.34375 -4.144531 -2.785156 -8.273438 -3.078125 -12.140625 C -3.367188 -16.015625 -3.515625 -19.007812 -3.515625 -21.125 C -3.753906 -28.050781 -3.519531 -34.890625 -2.8125 -41.640625 C -2.113281 -48.390625 -1.054688 -55.109375 0.359375 -61.796875 C 1.171875 -65.429688 2.046875 -69.039062 2.984375 -72.625 C 3.929688 -76.207031 5.050781 -79.757812 6.34375 -83.28125 C 6.570312 -83.863281 6.832031 -84.476562 7.125 -85.125 C 7.425781 -85.769531 7.75 -86.382812 8.09375 -86.96875 C 8.21875 -87.4375 8.570312 -87.554688 9.15625 -87.328125 C 9.269531 -87.210938 9.328125 -87.125 9.328125 -87.0625 C 9.328125 -87 9.382812 -86.910156 9.5 -86.796875 C 9.625 -86.679688 9.6875 -86.503906 9.6875 -86.265625 C 9.6875 -85.921875 9.65625 -85.597656 9.59375 -85.296875 C 9.53125 -85.003906 9.441406 -84.679688 9.328125 -84.328125 C 5.453125 -72.941406 2.632812 -61.148438 0.875 -48.953125 C 0.289062 -44.253906 -0.175781 -39.554688 -0.53125 -34.859375 C -0.882812 -30.160156 -0.882812 -25.40625 -0.53125 -20.59375 L 0.53125 -6.515625 C 0.644531 -5.578125 0.789062 -4.632812 0.96875 -3.6875 C 1.144531 -2.75 1.523438 -1.640625 2.109375 -0.359375 C 2.222656 -1.054688 2.3125 -1.726562 2.375 -2.375 C 2.4375 -3.019531 2.46875 -3.632812 2.46875 -4.21875 C 2.34375 -5.28125 2.34375 -6.335938 2.46875 -7.390625 C 2.695312 -16.785156 3.722656 -25.941406 5.546875 -34.859375 C 7.367188 -43.773438 9.921875 -52.519531 13.203125 -61.09375 C 13.554688 -62.144531 14.316406 -63.929688 15.484375 -66.453125 C 16.660156 -68.984375 18.039062 -71.628906 19.625 -74.390625 C 21.21875 -77.148438 22.804688 -79.492188 24.390625 -81.421875 C 25.972656 -83.359375 27.347656 -84.328125 28.515625 -84.328125 C 29.691406 -84.328125 30.632812 -83.445312 31.34375 -81.6875 C 31.8125 -80.75 31.925781 -79.398438 31.6875 -77.640625 C 30.863281 -73.765625 29.863281 -69.890625 28.6875 -66.015625 C 27.519531 -62.148438 26.113281 -58.394531 24.46875 -54.75 C 24.351562 -54.519531 24.234375 -54.253906 24.109375 -53.953125 C 23.992188 -53.660156 23.878906 -53.398438 23.765625 -53.171875 C 23.535156 -52.460938 23.65625 -51.757812 24.125 -51.0625 C 28.113281 -55.050781 32.191406 -58.6875 36.359375 -61.96875 C 40.523438 -65.257812 44.894531 -68.429688 49.46875 -71.484375 C 49.59375 -71.484375 49.710938 -71.539062 49.828125 -71.65625 C 49.828125 -71.65625 49.882812 -71.65625 50 -71.65625 C 50.238281 -71.65625 50.59375 -71.300781 51.0625 -70.59375 C 51.644531 -69.894531 51.582031 -69.425781 50.875 -69.1875 C 50.644531 -69.070312 50.410156 -68.925781 50.171875 -68.75 C 49.941406 -68.570312 49.707031 -68.367188 49.46875 -68.140625 C 49.238281 -68.015625 48.972656 -67.863281 48.671875 -67.6875 C 48.378906 -67.519531 48.117188 -67.316406 47.890625 -67.078125 C 42.960938 -63.910156 38.328125 -60.390625 33.984375 -56.515625 C 29.640625 -52.640625 25.472656 -48.472656 21.484375 -44.015625 C 19.722656 -42.253906 18.195312 -40.023438 16.90625 -37.328125 L 14.796875 -33.625 C 14.316406 -32.925781 13.84375 -32.578125 13.375 -32.578125 C 13.375 -32.578125 13.023438 -32.691406 12.328125 -32.921875 C 11.390625 -33.503906 11.210938 -34.328125 11.796875 -35.390625 C 12.023438 -35.859375 12.257812 -36.269531 12.5 -36.625 C 12.738281 -36.976562 12.914062 -37.328125 13.03125 -37.671875 C 13.257812 -38.023438 13.488281 -38.378906 13.71875 -38.734375 C 13.957031 -39.085938 14.195312 -39.441406 14.4375 -39.796875 C 17.375 -44.609375 20.046875 -50.179688 22.453125 -56.515625 C 24.859375 -62.859375 26.820312 -68.84375 28.34375 -74.46875 C 29.632812 -79.28125 29.753906 -81.453125 28.703125 -80.984375 C 27.523438 -80.515625 26.613281 -79.8125 25.96875 -78.875 C 25.320312 -77.9375 24.707031 -77 24.125 -76.0625 C 20.476562 -70.65625 17.394531 -64.519531 14.875 -57.65625 C 12.351562 -50.789062 10.359375 -43.773438 8.890625 -36.609375 C 7.421875 -29.453125 6.394531 -22.648438 5.8125 -16.203125 C 5.34375 -11.265625 5.132812 -6.421875 5.1875 -1.671875 C 5.25 3.078125 5.515625 7.859375 5.984375 12.671875 C 6.097656 13.140625 6.1875 13.640625 6.25 14.171875 C 6.3125 14.703125 6.34375 15.257812 6.34375 15.84375 C 6.34375 16.3125 6.34375 16.8125 6.34375 17.34375 C 6.34375 17.875 6.398438 18.429688 6.515625 19.015625 C 6.515625 19.835938 6.101562 20.304688 5.28125 20.421875 Z M 4.578125 20.59375 "/></g></g></g><g fill="#f7f7f7" fill-opacity="1"><g transform="translate(592.367625, 153.82406)"><g><path d="M 8.28125 -47.71875 C 7.101562 -47.71875 5.867188 -48.1875 4.578125 -49.125 C 1.171875 -51.707031 -0.472656 -55.171875 -0.359375 -59.515625 C -0.359375 -61.859375 0.164062 -64.671875 1.21875 -67.953125 C 2.28125 -71.242188 3.75 -74.148438 5.625 -76.671875 C 7.507812 -79.191406 9.742188 -80.453125 12.328125 -80.453125 C 13.617188 -80.453125 14.671875 -79.984375 15.484375 -79.046875 C 16.304688 -78.109375 16.660156 -76.878906 16.546875 -75.359375 C 16.429688 -73.710938 15.664062 -71.945312 14.25 -70.0625 C 12.84375 -68.1875 11.4375 -66.957031 10.03125 -66.375 C 9.914062 -66.257812 9.625 -66.203125 9.15625 -66.203125 C 8.332031 -66.203125 7.742188 -66.550781 7.390625 -67.25 C 6.921875 -67.957031 6.628906 -68.488281 6.515625 -68.84375 C 6.398438 -69.070312 6.253906 -69.332031 6.078125 -69.625 C 5.898438 -69.925781 5.691406 -70.191406 5.453125 -70.421875 C 4.398438 -69.128906 3.578125 -67.101562 2.984375 -64.34375 C 2.398438 -61.59375 2.109375 -59.394531 2.109375 -57.75 C 2.222656 -57.394531 2.28125 -56.863281 2.28125 -56.15625 C 2.28125 -55.457031 2.34375 -54.929688 2.46875 -54.578125 C 3.40625 -51.878906 5.046875 -50.53125 7.390625 -50.53125 C 7.515625 -50.53125 7.722656 -50.554688 8.015625 -50.609375 C 8.304688 -50.671875 8.6875 -50.757812 9.15625 -50.875 C 12.5625 -52.050781 15.875 -54.34375 19.09375 -57.75 C 22.320312 -61.15625 24.816406 -64.5 26.578125 -67.78125 L 28.515625 -70.953125 C 28.640625 -71.421875 28.9375 -71.65625 29.40625 -71.65625 C 29.632812 -71.65625 29.8125 -71.597656 29.9375 -71.484375 C 30.40625 -71.367188 30.640625 -70.957031 30.640625 -70.25 C 30.867188 -69.664062 30.691406 -69.019531 30.109375 -68.3125 C 27.878906 -64.4375 25.207031 -60.503906 22.09375 -56.515625 C 18.988281 -52.523438 15.203125 -49.765625 10.734375 -48.234375 C 9.910156 -47.890625 9.09375 -47.71875 8.28125 -47.71875 Z M 8.984375 -69.375 C 12.035156 -71.363281 13.796875 -73.648438 14.265625 -76.234375 C 14.378906 -77.285156 13.910156 -77.753906 12.859375 -77.640625 C 11.441406 -77.410156 10.148438 -76.707031 8.984375 -75.53125 C 7.566406 -74.59375 6.800781 -73.535156 6.6875 -72.359375 C 6.457031 -71.773438 6.691406 -71.363281 7.390625 -71.125 C 7.859375 -70.769531 8.210938 -70.300781 8.453125 -69.71875 C 8.453125 -69.832031 8.628906 -69.71875 8.984375 -69.375 Z M 8.984375 -69.375 "/></g></g></g><g fill="#f7f7f7" fill-opacity="1"><g transform="translate(618.95309, 153.82406)"><g><path d="M -3.703125 -1.9375 C -4.171875 -1.9375 -4.753906 -2.113281 -5.453125 -2.46875 C -7.335938 -3.289062 -8.046875 -4.582031 -7.578125 -6.34375 C -7.453125 -7.164062 -7.242188 -7.957031 -6.953125 -8.71875 C -6.660156 -9.476562 -6.335938 -10.210938 -5.984375 -10.921875 C -3.753906 -15.609375 -0.9375 -20.390625 2.46875 -25.265625 C 5.875 -30.140625 9.484375 -34.832031 13.296875 -39.34375 C 17.109375 -43.863281 20.773438 -47.882812 24.296875 -51.40625 C 25.816406 -52.9375 26.578125 -54.519531 26.578125 -56.15625 C 26.460938 -57.101562 26.226562 -57.722656 25.875 -58.015625 C 25.53125 -58.304688 24.882812 -58.453125 23.9375 -58.453125 C 17.957031 -57.273438 12.503906 -54.578125 7.578125 -50.359375 C 7.222656 -50.003906 6.867188 -49.828125 6.515625 -49.828125 C 6.273438 -49.828125 5.921875 -50.0625 5.453125 -50.53125 C 4.515625 -51.238281 4.398438 -51.941406 5.109375 -52.640625 C 5.335938 -52.878906 5.628906 -53.144531 5.984375 -53.4375 C 6.335938 -53.726562 6.628906 -53.992188 6.859375 -54.234375 C 7.097656 -54.460938 7.394531 -54.691406 7.75 -54.921875 C 8.101562 -55.160156 8.394531 -55.398438 8.625 -55.640625 C 15.90625 -61.859375 22.890625 -68.3125 29.578125 -75 C 30.046875 -75.46875 30.484375 -75.90625 30.890625 -76.3125 C 31.304688 -76.726562 31.691406 -77.171875 32.046875 -77.640625 C 32.515625 -78.109375 32.925781 -78.460938 33.28125 -78.703125 C 33.625 -79.054688 33.625 -79.46875 33.28125 -79.9375 C 33.15625 -80.28125 32.859375 -80.453125 32.390625 -80.453125 C 31.921875 -80.453125 31.628906 -80.394531 31.515625 -80.28125 C 31.398438 -80.164062 31.253906 -80.109375 31.078125 -80.109375 C 30.898438 -80.109375 30.691406 -80.050781 30.453125 -79.9375 C 29.285156 -79.582031 28.113281 -79.226562 26.9375 -78.875 C 25.757812 -78.519531 24.585938 -78.109375 23.421875 -77.640625 C 20.242188 -76.347656 17.070312 -75.054688 13.90625 -73.765625 C 10.738281 -72.472656 7.570312 -71.179688 4.40625 -69.890625 C 4.164062 -69.773438 3.988281 -69.6875 3.875 -69.625 C 3.757812 -69.570312 3.703125 -69.546875 3.703125 -69.546875 L 3.34375 -69.546875 C 1.9375 -69.546875 0.675781 -70.25 -0.4375 -71.65625 C -1.550781 -73.0625 -1.875 -74.410156 -1.40625 -75.703125 C -1.175781 -76.640625 -0.765625 -77.519531 -0.171875 -78.34375 C 0.765625 -79.75 2.113281 -81.421875 3.875 -83.359375 C 5.632812 -85.296875 7.570312 -87.023438 9.6875 -88.546875 C 11.800781 -90.078125 13.738281 -90.84375 15.5 -90.84375 C 17.601562 -90.84375 18.71875 -89.90625 18.84375 -88.03125 C 18.957031 -86.851562 18.660156 -85.679688 17.953125 -84.515625 C 17.367188 -83.566406 16.753906 -82.648438 16.109375 -81.765625 C 15.460938 -80.890625 14.726562 -80.046875 13.90625 -79.234375 C 13.675781 -78.992188 13.265625 -78.40625 12.671875 -77.46875 C 13.609375 -77.46875 14.398438 -77.554688 15.046875 -77.734375 C 15.691406 -77.910156 16.488281 -78.234375 17.4375 -78.703125 C 19.425781 -79.523438 21.414062 -80.285156 23.40625 -80.984375 C 25.40625 -81.691406 27.460938 -82.335938 29.578125 -82.921875 C 30.867188 -83.390625 32.335938 -83.625 33.984375 -83.625 C 35.972656 -83.394531 36.96875 -82.335938 36.96875 -80.453125 C 36.96875 -79.515625 36.675781 -78.578125 36.09375 -77.640625 L 33.984375 -75.171875 L 23.765625 -64.96875 C 23.535156 -64.726562 23.269531 -64.460938 22.96875 -64.171875 C 22.675781 -63.878906 22.414062 -63.613281 22.1875 -63.375 C 21.945312 -63.144531 21.707031 -62.882812 21.46875 -62.59375 C 21.238281 -62.300781 21.007812 -61.976562 20.78125 -61.625 C 21.363281 -61.269531 21.832031 -61.09375 22.1875 -61.09375 C 22.539062 -61.09375 22.773438 -61.148438 22.890625 -61.265625 C 23.003906 -61.265625 23.117188 -61.265625 23.234375 -61.265625 C 23.359375 -61.265625 23.476562 -61.265625 23.59375 -61.265625 C 25.707031 -61.265625 27.175781 -60.382812 28 -58.625 L 29.046875 -56.515625 C 29.867188 -56.753906 30.515625 -57.109375 30.984375 -57.578125 C 31.453125 -58.046875 31.921875 -58.515625 32.390625 -58.984375 C 34.617188 -60.972656 36.90625 -62.878906 39.25 -64.703125 C 41.601562 -66.523438 44.015625 -68.253906 46.484375 -69.890625 L 48.953125 -71.3125 C 49.066406 -71.425781 49.300781 -71.484375 49.65625 -71.484375 C 50.125 -71.484375 50.414062 -71.304688 50.53125 -70.953125 C 51.238281 -70.128906 51.238281 -69.367188 50.53125 -68.671875 C 50.175781 -68.429688 49.820312 -68.191406 49.46875 -67.953125 C 49.125 -67.722656 48.832031 -67.488281 48.59375 -67.25 C 46.71875 -65.957031 44.222656 -64.195312 41.109375 -61.96875 C 37.992188 -59.738281 35.085938 -57.363281 32.390625 -54.84375 C 29.691406 -52.320312 27.992188 -49.945312 27.296875 -47.71875 C 26.117188 -44.539062 24.53125 -40.957031 22.53125 -36.96875 C 20.539062 -32.976562 18.34375 -28.957031 15.9375 -24.90625 C 13.53125 -20.863281 11.035156 -17.082031 8.453125 -13.5625 C 5.867188 -10.039062 3.40625 -7.164062 1.0625 -4.9375 C 0.820312 -4.695312 0.523438 -4.488281 0.171875 -4.3125 C -0.179688 -4.132812 -0.472656 -3.929688 -0.703125 -3.703125 C -1.410156 -3.234375 -1.9375 -2.820312 -2.28125 -2.46875 C -2.632812 -2.113281 -3.109375 -1.9375 -3.703125 -1.9375 Z M -4.046875 -5.640625 C -3.816406 -5.515625 -3.640625 -5.515625 -3.515625 -5.640625 C -3.398438 -5.753906 -3.285156 -5.8125 -3.171875 -5.8125 C -3.054688 -5.8125 -2.9375 -5.867188 -2.8125 -5.984375 C -0.820312 -7.628906 0.992188 -9.445312 2.640625 -11.4375 C 4.285156 -13.4375 5.753906 -15.492188 7.046875 -17.609375 C 9.503906 -21.359375 11.847656 -25.140625 14.078125 -28.953125 C 16.316406 -32.773438 18.488281 -36.679688 20.59375 -40.671875 C 21.1875 -41.492188 21.421875 -42.195312 21.296875 -42.78125 L 20.953125 -42.78125 C 20.597656 -42.78125 20.300781 -42.660156 20.0625 -42.421875 C 19.832031 -42.191406 19.597656 -41.960938 19.359375 -41.734375 C 14.898438 -36.679688 10.53125 -31.21875 6.25 -25.34375 C 1.96875 -19.476562 -1.519531 -13.4375 -4.21875 -7.21875 C -4.457031 -6.28125 -4.398438 -5.753906 -4.046875 -5.640625 Z M 21.484375 -42.953125 C 21.597656 -43.078125 21.535156 -43.140625 21.296875 -43.140625 Z M 1.9375 -73.234375 C 3.457031 -73.234375 4.628906 -73.644531 5.453125 -74.46875 C 7.210938 -76.226562 8.941406 -78.046875 10.640625 -79.921875 C 12.347656 -81.804688 13.96875 -83.804688 15.5 -85.921875 C 15.5 -85.921875 15.523438 -85.976562 15.578125 -86.09375 C 15.640625 -86.207031 15.726562 -86.382812 15.84375 -86.625 L 15.84375 -87.328125 C 15.613281 -87.679688 15.378906 -87.738281 15.140625 -87.5 C 8.804688 -85.039062 4.113281 -80.695312 1.0625 -74.46875 C 1.0625 -73.882812 1.351562 -73.472656 1.9375 -73.234375 Z M 1.9375 -73.234375 "/></g></g></g></g></g></svg>