<?xml version="1.0" encoding="UTF-8"?>
<svg version="1.1" xmlns="http://www.w3.org/2000/svg" width="1024" height="1024">
<path d="M0 0 C337.92 0 675.84 0 1024 0 C1024 337.92 1024 675.84 1024 1024 C686.08 1024 348.16 1024 0 1024 C0 686.08 0 348.16 0 0 Z " fill="#FAF9F6" transform="translate(0,0)"/>
<path d="M0 0 C0.89370804 -0.01261871 1.78741608 -0.02523743 2.70820618 -0.03823853 C22.44984561 -0.26292152 41.28266884 -0.21311436 60.41015625 5.2734375 C61.44495117 5.56814941 62.47974609 5.86286133 63.54589844 6.16650391 C76.46647593 9.95751253 88.68268339 14.65141869 100.41015625 21.2734375 C101.02616699 21.61455566 101.64217773 21.95567383 102.27685547 22.30712891 C133.90257862 39.9481857 158.1062118 66.26811498 176.26611328 97.32324219 C176.64364746 97.96680664 177.02118164 98.61037109 177.41015625 99.2734375 C178.04304565 100.60967163 178.04304565 100.60967163 178.6887207 101.97290039 C180.21392826 104.52227407 180.21392826 104.52227407 183.03540039 104.90112305 C184.59955688 104.90559448 184.59955688 104.90559448 186.1953125 104.91015625 C187.93760132 104.93783081 187.93760132 104.93783081 189.71508789 104.96606445 C190.95508545 104.96437256 192.19508301 104.96268066 193.47265625 104.9609375 C196.03524336 105.00567824 198.59775221 105.0551537 201.16015625 105.109375 C202.40796875 105.13225586 203.65578125 105.15513672 204.94140625 105.17871094 C243.95105768 106.24400829 280.27101213 121.25448224 308.41015625 148.2734375 C309.3640625 149.16417969 310.31796875 150.05492187 311.30078125 150.97265625 C338.10051598 176.44515779 354.62232886 213.18586052 356.61523438 250.06884766 C356.71281573 254.01342462 356.74476763 257.95309331 356.72265625 261.8984375 C356.7205011 262.59587067 356.71834595 263.29330383 356.71612549 264.01187134 C356.52781482 302.17199431 344.12079228 340.51238702 318.41015625 369.2734375 C317.54648437 370.26859375 316.6828125 371.26375 315.79296875 372.2890625 C309.88648736 379.00615464 303.60827489 384.93624979 296.41015625 390.2734375 C295.8800293 390.66740723 295.34990234 391.06137695 294.80371094 391.46728516 C281.64098525 401.10441717 266.81979075 408.80891349 251.09765625 413.2734375 C250.45465576 413.45688721 249.81165527 413.64033691 249.14916992 413.8293457 C234.4300423 417.60045199 219.48304465 417.53536981 204.41015625 417.3984375 C202.45964007 417.3883766 200.5091188 417.37925631 198.55859375 417.37109375 C193.84231916 417.34935199 189.12629611 417.31499784 184.41015625 417.2734375 C183.96772583 418.21292236 183.96772583 418.21292236 183.51635742 419.17138672 C181.02506311 423.90545074 175.89420933 426.65741547 171.09765625 428.6484375 C160.7471118 430.40276707 153.23937973 429.3572236 144.41015625 423.2734375 C138.77219326 417.77724147 136.39959346 411.82872546 135.97265625 404.0234375 C136.13671817 396.92052144 138.55393629 391.50723878 143.2421875 386.19921875 C148.73082072 381.03535673 154.28334823 378.22674948 161.84765625 377.8984375 C169.67596024 378.20887024 175.83657239 380.69985364 181.41015625 386.2734375 C182.12785579 387.47632559 182.83748859 388.68405623 183.53979492 389.89599609 C185.02098557 391.98721373 185.84275774 393.08152479 188.28921509 393.90899658 C190.58341908 394.13413947 192.78189735 394.13954965 195.0859375 394.0625 C195.92875778 394.05971039 196.77157806 394.05692078 197.63993835 394.05404663 C199.42624985 394.0412994 201.21250973 394.01165666 202.99829102 393.96630859 C205.67632124 393.89959183 208.3505174 393.88435344 211.02929688 393.87890625 C224.64975267 393.76179236 238.03185225 392.39698504 250.91015625 387.6484375 C251.60536377 387.39537842 252.30057129 387.14231934 253.0168457 386.8815918 C282.68054514 375.59405022 305.94320781 351.7093923 319.41015625 323.2734375 C334.75515027 288.26228716 336.99674773 249.37244005 323.65625 213.41015625 C317.05891764 196.53195259 307.6319893 182.56306307 295.41015625 169.2734375 C294.7965625 168.58894531 294.18296875 167.90445313 293.55078125 167.19921875 C276.04386457 148.60895327 250.31932107 136.56388194 225.41015625 132.2734375 C224.38575439 132.09611084 223.36135254 131.91878418 222.3059082 131.73608398 C214.81879097 130.58607015 207.53368571 130.10631192 199.96875 130.03515625 C199.06336487 130.02624863 198.15797974 130.017341 197.22515869 130.00816345 C193.47769916 129.97862388 189.73073519 129.95875483 185.9831543 129.96801758 C183.20690392 129.97063511 180.43228192 129.94259326 177.65625 129.91015625 C176.8155748 129.92036301 175.9748996 129.93056976 175.10874939 129.94108582 C171.02830388 129.87314195 168.25973707 129.58806166 164.99511719 127.01611328 C162.71868442 124.60078974 161.22186586 122.71819481 159.8046875 119.75390625 C159.17445679 118.47978882 159.17445679 118.47978882 158.53149414 117.17993164 C158.09957764 116.28266357 157.66766113 115.38539551 157.22265625 114.4609375 C149.5026222 99.1386618 139.96851041 85.92313841 128.41015625 73.2734375 C127.6625 72.45359375 126.91484375 71.63375 126.14453125 70.7890625 C99.78964447 43.26284742 60.58814688 25.05123244 22.50201416 24.07749939 C4.8551231 23.73315346 -12.43420088 23.57930854 -29.58984375 28.2734375 C-30.45528809 28.50949707 -31.32073242 28.74555664 -32.21240234 28.98876953 C-73.07948656 40.57861185 -108.11113101 68.04633538 -128.9375 105.10546875 C-131.01236649 108.88411508 -133.03129471 112.68911295 -135.03125 116.5078125 C-140.25035654 126.38044603 -140.25035654 126.38044603 -144.58984375 129.2734375 C-146.5690918 129.53172302 -146.5690918 129.53172302 -148.8515625 129.54467773 C-150.14066528 129.55995766 -150.14066528 129.55995766 -151.45581055 129.57554626 C-152.3869165 129.57768631 -153.31802246 129.57982635 -154.27734375 129.58203125 C-156.27734596 129.60724685 -158.2773459 129.63264382 -160.27734375 129.65820312 C-163.40754243 129.6866021 -166.53769966 129.71061904 -169.66796875 129.72973633 C-186.60471739 129.85323345 -203.67395355 130.36137166 -219.71484375 136.3984375 C-220.53484863 136.6977417 -221.35485352 136.9970459 -222.19970703 137.30541992 C-240.52270459 144.22913027 -256.45623948 154.77994212 -270.58984375 168.2734375 C-271.17765625 168.79808594 -271.76546875 169.32273437 -272.37109375 169.86328125 C-295.36164445 191.17291905 -308.4067931 225.80055945 -309.828125 256.59375 C-310.83635852 293.67717436 -298.65260008 330.46266933 -273.33203125 357.84765625 C-255.90840582 376.14493088 -234.00861677 389.22435746 -208.58984375 392.2734375 C-207.55601562 392.39847656 -206.5221875 392.52351563 -205.45703125 392.65234375 C-202.34158266 392.84350052 -199.65533976 392.89091598 -196.58984375 392.2734375 C-194.72029781 390.43446825 -193.84079516 388.82980578 -192.84765625 386.4140625 C-191.58984375 384.2734375 -191.58984375 384.2734375 -188.55953979 382.5524292 C-185.32946296 380.56212227 -185.32946296 380.56212227 -184.83035278 377.24884033 C-184.82591156 376.06747498 -184.82147034 374.88610962 -184.81689453 373.66894531 C-184.8062648 373.01487198 -184.79563507 372.36079865 -184.78468323 371.68690491 C-184.75665737 369.53267192 -184.7706807 367.3808939 -184.78515625 365.2265625 C-184.77390476 363.73010114 -184.7600235 362.23365743 -184.74362183 360.73724365 C-184.7075731 356.80465398 -184.70721133 352.87284152 -184.71429443 348.94012451 C-184.71520713 344.92478518 -184.68235209 340.90973749 -184.65234375 336.89453125 C-184.59847178 329.02072632 -184.5823007 321.14742196 -184.58984375 313.2734375 C-185.19699219 312.99886719 -185.80414063 312.72429687 -186.4296875 312.44140625 C-190.92108228 310.01296676 -194.26549116 305.17463992 -196.078125 300.44921875 C-197.93244349 292.56482641 -197.43249401 285.23891767 -193.26953125 278.2734375 C-191.58984375 276.2734375 -191.58984375 276.2734375 -188.5390625 274.62060547 C-186.06178497 272.55452988 -185.61124147 271.3871931 -185.00515747 268.1651001 C-184.75892123 264.00568875 -184.70122105 259.88373235 -184.72265625 255.71875 C-184.71352772 254.17323897 -184.7029151 252.62773606 -184.69088745 251.08224487 C-184.67303735 247.84567255 -184.67785283 244.61008739 -184.69775391 241.37353516 C-184.72071384 237.23769885 -184.68035215 233.10528311 -184.62191963 228.96989632 C-184.58511086 225.77825489 -184.58579629 222.58742662 -184.59719467 219.39562607 C-184.59750022 217.87184734 -184.58548274 216.34801196 -184.56061172 214.82443619 C-184.21266264 206.3956937 -184.21266264 206.3956937 -187.34954834 198.8649292 C-189.42342351 196.98900419 -189.42342351 196.98900419 -191.63058472 195.59640503 C-195.09997504 193.25373841 -196.55767452 190.25466168 -197.58984375 186.2734375 C-198.71781156 177.28192265 -198.02208349 169.70342788 -192.58984375 162.2734375 C-188.04010657 157.18335148 -182.68387982 153.68057921 -175.76171875 152.9921875 C-169.01649539 152.78881393 -162.19979701 152.94676078 -156.9951601 157.74298477 C-156.1990194 158.53563547 -156.1990194 158.53563547 -155.38679504 159.34429932 C-151.39222113 162.82305438 -148.31622679 163.1198982 -143.15112305 163.01464844 C-141.93010391 163.02577415 -141.93010391 163.02577415 -140.68441772 163.03712463 C-138.01026103 163.05493796 -135.33814785 163.03122157 -132.6640625 163.0078125 C-130.79229076 163.01399254 -128.92052659 163.02309324 -127.04878235 163.03497314 C-122.12873279 163.05967173 -117.20936331 163.05049223 -112.28930664 163.03240967 C-104.42667878 163.00898813 -96.56409554 163.03634975 -88.70151711 163.06513214 C-85.96849539 163.07021134 -83.23584611 163.0604446 -80.50285339 163.04827881 C-59.51794403 163.01743037 -40.78489146 168.45142836 -25.15234375 183.1484375 C-11.53798675 197.86823374 -5.70942715 217.11899977 -6.30859375 236.84765625 C-7.291285 255.85863747 -15.53188221 273.24413666 -29.2734375 286.3671875 C-37.45559793 293.10056742 -46.76041432 297.51237629 -56.58984375 301.2734375 C-51.68278042 309.05983617 -46.6464687 316.75009377 -41.52734375 324.3984375 C-40.36057318 326.14418198 -39.19416625 327.8901691 -38.02775574 329.63615417 C-37.20288262 330.87080184 -36.37785776 332.10534814 -35.5526886 333.33979797 C-32.23828711 338.29905529 -28.93259382 343.26406946 -25.62890625 348.23046875 C-24.12841899 350.48513516 -22.62783658 352.73973821 -21.12722778 354.99432373 C-20.14824763 356.46564001 -19.16962704 357.9371956 -18.19137573 359.40899658 C-16.81615596 361.47780725 -15.43948195 363.5456432 -14.0625 365.61328125 C-13.44956589 366.53654961 -13.44956589 366.53654961 -12.82424927 367.47846985 C-9.53221458 373.32988745 -9.53221458 373.32988745 -4.390625 376.92578125 C-3.56949219 377.01988281 -2.74835938 377.11398437 -1.90234375 377.2109375 C7.31622685 378.77863047 12.85704037 383.98195491 18.41015625 391.2734375 C18.74015625 391.9334375 19.07015625 392.5934375 19.41015625 393.2734375 C21.67937161 393.40833141 23.95086295 393.50537745 26.22265625 393.5859375 C27.48722656 393.64394531 28.75179688 393.70195313 30.0546875 393.76171875 C31.71564453 393.52001953 31.71564453 393.52001953 33.41015625 393.2734375 C35.06389805 390.99012612 35.06389805 390.99012612 36.41015625 388.2734375 C37.41289581 387.69418015 38.41563538 387.11492279 39.44876099 386.51811218 C42.67379657 384.55770112 42.67379657 384.55770112 43.18551636 381.23347473 C43.19632233 380.04372543 43.2071283 378.85397614 43.21826172 377.62817383 C43.23198822 376.96904999 43.24571472 376.30992615 43.25985718 375.63082886 C43.29641454 373.45482786 43.28871703 371.28171057 43.27734375 369.10546875 C43.28647168 367.58573983 43.29708412 366.06601916 43.30911255 364.54631042 C43.32698169 361.35922762 43.32212963 358.17314663 43.30224609 354.98608398 C43.27934485 350.92101102 43.31954666 346.85943338 43.37808037 342.79481983 C43.41497431 339.65370541 43.41418589 336.51341406 43.40280533 333.37213707 C43.40250048 331.87513029 43.4144588 330.37806486 43.43938828 328.88126564 C43.54360359 321.59356451 43.60210006 315.73039509 38.47314453 310.0534668 C37.7628006 309.41104538 37.05245667 308.76862396 36.32058716 308.10673523 C31.64315121 303.61814961 31.22901836 297.39470238 30.97265625 291.2109375 C31.14127801 285.67452293 32.15536049 281.75562812 35.41015625 277.2734375 C36.59762316 276.23279392 37.79832831 275.2071126 39.0100708 274.19483948 C42.69760239 270.54632527 43.23309911 267.83390685 43.31123352 262.74224854 C43.28043953 261.30737091 43.28043953 261.30737091 43.24902344 259.84350586 C43.25795876 258.3056115 43.25795876 258.3056115 43.26707458 256.73664856 C43.27914642 253.36136285 43.24273452 249.98836962 43.20703125 246.61328125 C43.20879935 244.26110834 43.21407986 241.90893567 43.22271729 239.55677795 C43.23796451 233.3725273 43.21413635 227.18909389 43.17950439 221.00494385 C43.12901186 211.10378788 43.13066784 201.20266689 43.14591217 191.30142403 C43.14454898 187.84573184 43.12220168 184.39063653 43.09735107 180.93504333 C43.09390675 178.814688 43.09104739 176.69433162 43.08886719 174.57397461 C43.07021858 173.13606064 43.07021858 173.13606064 43.05119324 171.6690979 C43.06529442 166.48727808 43.32265813 162.65506803 46.41015625 158.2734375 C50.90561175 154.1345306 56.50254625 154.84421722 62.26464844 154.86938477 C63.35973221 154.86252151 64.45481598 154.85565826 65.58308411 154.84858704 C69.20786483 154.8302723 72.8322141 154.83416714 76.45703125 154.83984375 C78.98748922 154.8352806 81.51794595 154.82997463 84.04840088 154.82395935 C89.36126301 154.81501633 94.67396894 154.81722586 99.98681641 154.82739258 C106.08576547 154.8388074 112.18427137 154.82491158 118.28316188 154.7979961 C124.18581837 154.77294163 130.08830612 154.77070191 135.99100494 154.77711296 C138.48335757 154.77726519 140.97571909 154.77130312 143.46804047 154.75882149 C160.13084077 154.68719985 176.82461545 154.8260238 191.84765625 163.0234375 C192.5032251 163.36777832 193.15879395 163.71211914 193.83422852 164.06689453 C211.23153161 173.49088012 223.01694749 188.60173703 228.91015625 207.3359375 C233.85564062 228.26083136 230.11278582 249.80955056 219.66015625 268.3984375 C209.14816619 285.10499313 192.58094789 295.38081314 173.51812744 299.83517456 C162.32795973 302.16169392 151.45287889 302.60868875 140.078125 302.6875 C138.34791688 302.70625423 136.6177175 302.72583064 134.88752747 302.7461853 C130.37829794 302.79706377 125.8690389 302.83692361 121.35968018 302.87432861 C116.74036629 302.91464923 112.12117044 302.96561213 107.50195312 303.015625 C98.47143761 303.1118584 89.44085476 303.19642786 80.41015625 303.2734375 C79.7140625 304.70864746 79.7140625 304.70864746 79.00390625 306.17285156 C76.51376568 311.0173346 72.92026482 313.26669845 68.41015625 316.2734375 C67.90071827 319.07499988 67.90071827 319.07499988 67.91088867 322.41625977 C67.87883835 323.70842911 67.84678802 325.00059845 67.81376648 326.33192444 C67.79589516 327.75120908 67.77989552 329.17051834 67.765625 330.58984375 C67.75589472 331.30492537 67.74616444 332.02000698 67.7361393 332.75675774 C67.68525553 336.54724488 67.65252792 340.33739316 67.63452148 344.12817383 C67.61257222 348.02775845 67.53030275 351.92354565 67.43340588 355.82188511 C67.36966188 358.83248307 67.35120136 361.84219185 67.34456825 364.85340691 C67.33370827 366.28918828 67.3062209 367.72495142 67.2611599 369.1600666 C66.94728086 377.7024392 66.94728086 377.7024392 70.63491821 385.10665894 C73.27667979 387.54099432 73.27667979 387.54099432 76.05317688 389.52940369 C79.50723914 392.0852179 80.45195704 394.09842664 81.41015625 398.2734375 C82.14104944 406.20884929 82.56020736 413.78495502 77.41015625 420.2734375 C71.24221165 427.29409334 64.14721813 430.13808404 54.91015625 430.7734375 C49.45492756 430.55136624 44.83771087 428.38427588 40.41015625 425.2734375 C39.0078125 423.3828125 39.0078125 423.3828125 37.78515625 421.4609375 C35.56530279 418.54176605 34.41219162 418.27381672 30.69921875 417.58203125 C23.14747888 417.04273581 23.14747888 417.04273581 16.31640625 419.71875 C14.8797161 421.50052241 14.8797161 421.50052241 13.6953125 423.453125 C10.9958469 427.27668418 6.30475656 428.69048356 1.97265625 430.0234375 C1.12703125 430.1059375 0.28140625 430.1884375 -0.58984375 430.2734375 C-1.55664062 430.38558594 -1.55664062 430.38558594 -2.54296875 430.5 C-9.19036343 430.94161014 -14.14362422 429.03850888 -19.58984375 425.2734375 C-26.1272584 419.44516613 -30.01333374 413.55811259 -30.96484375 404.8359375 C-30.56573075 401.04436399 -29.60519531 397.9291918 -28.24609375 394.38671875 C-27.39213323 392.00556774 -27.39213323 392.00556774 -27.58984375 388.2734375 C-28.88929445 386.01855794 -30.2195813 383.94988852 -31.7109375 381.828125 C-32.63670024 380.47633576 -33.5623102 379.12444188 -34.48779297 377.77246094 C-34.98945984 377.04651733 -35.49112671 376.32057373 -36.00799561 375.57263184 C-38.21805106 372.36034688 -40.38983801 369.12285839 -42.56338501 365.88580322 C-44.35466002 363.21847081 -46.15033357 360.55414922 -47.94726562 357.890625 C-54.60479884 348.02228569 -54.60479884 348.02228569 -57.09381104 344.31489563 C-58.32770572 342.49376028 -59.57655912 340.68267502 -60.83978271 338.88175964 C-64.33304587 333.86082448 -67.36796664 328.86284928 -70.11230469 323.3918457 C-76.32011519 311.3517941 -76.32011519 311.3517941 -87.14883423 303.95092773 C-96.40329728 301.82003655 -106.0121484 302.50692803 -115.40777588 303.09051514 C-118.50147344 303.25199733 -121.59124565 303.28841665 -124.68858528 303.32108212 C-128.41008963 303.36724662 -132.12810713 303.48851714 -135.84765625 303.61328125 C-136.89386831 303.63812245 -136.89386831 303.63812245 -137.96121597 303.6634655 C-145.95515299 303.7616728 -145.95515299 303.7616728 -152.95111084 307.0930481 C-154.83715165 309.18465218 -154.83715165 309.18465218 -156.28390503 311.38648987 C-157.58984375 313.2734375 -157.58984375 313.2734375 -160.58984375 315.2734375 C-161.06879334 318.10017174 -161.06879334 318.10017174 -161.0222168 321.46728516 C-161.05190804 323.41908188 -161.05190804 323.41908188 -161.0821991 325.41030884 C-161.08896942 326.83603776 -161.09541623 328.26176825 -161.1015625 329.6875 C-161.118402 331.14197315 -161.13655125 332.59643167 -161.15596008 334.0508728 C-161.20354606 337.88130119 -161.23329939 341.71167034 -161.25939941 345.54229736 C-161.2891619 349.45019232 -161.33570688 353.35788292 -161.38085938 357.265625 C-161.4669901 364.93479464 -161.53429146 372.60397897 -161.58984375 380.2734375 C-160.79980957 380.56839111 -160.00977539 380.86334473 -159.19580078 381.16723633 C-153.99698475 383.3740787 -151.52359382 388.71718738 -148.71484375 393.3984375 C-146.27432832 399.86210563 -146.33934356 407.73509038 -148.62109375 414.19140625 C-152.30867902 420.96222254 -157.49285755 425.29607562 -164.6640625 428.078125 C-172.28720509 430.26472386 -178.38313709 429.96680185 -185.40234375 426.5546875 C-188.80886262 424.55944073 -191.95922928 422.2339361 -194.58984375 419.2734375 C-194.58984375 418.6134375 -194.58984375 417.9534375 -194.58984375 417.2734375 C-195.6571875 417.24765625 -196.72453125 417.221875 -197.82421875 417.1953125 C-234.20217797 415.95956951 -262.39565137 402.15792026 -288.58984375 377.2734375 C-289.2859375 376.65339844 -289.98203125 376.03335937 -290.69921875 375.39453125 C-311.7475614 355.95525611 -324.48600759 325.66972537 -330.58984375 298.2734375 C-330.75355469 297.60183594 -330.91726563 296.93023438 -331.0859375 296.23828125 C-336.15740521 275.15606425 -335.81991112 249.27607024 -330.58984375 228.2734375 C-330.42355469 227.55414063 -330.25726563 226.83484375 -330.0859375 226.09375 C-323.28837191 196.99009881 -307.96666754 172.69766812 -287.58984375 151.2734375 C-286.71972656 150.32404297 -286.71972656 150.32404297 -285.83203125 149.35546875 C-266.06094611 128.44183346 -238.28782474 114.70265117 -210.58984375 108.2734375 C-209.85459473 108.10086426 -209.1193457 107.92829102 -208.36181641 107.75048828 C-199.92894076 105.87501054 -191.67235704 105.20807215 -183.05078125 105.19140625 C-181.91279335 105.1828788 -181.91279335 105.1828788 -180.7518158 105.17417908 C-176.91094647 105.14651093 -173.08112228 105.16465302 -169.24145508 105.26635742 C-161.84080439 105.53838115 -161.84080439 105.53838115 -155.39575195 102.46459961 C-153.81595044 100.13270054 -152.68800679 97.8632524 -151.58984375 95.2734375 C-150.88457608 94.04066912 -150.16313687 92.8169353 -149.421875 91.60546875 C-149.0921167 91.02974121 -148.7623584 90.45401367 -148.42260742 89.86083984 C-140.91825568 76.80588958 -131.37611028 65.58522978 -120.98925781 54.74023438 C-119.71503646 53.40465833 -118.45993172 52.05090973 -117.20703125 50.6953125 C-105.80920939 38.71794037 -92.02769264 29.21234966 -77.58984375 21.2734375 C-76.98946289 20.93505859 -76.38908203 20.59667969 -75.77050781 20.24804688 C-52.95419504 7.505995 -26.12229832 0.33740809 0 0 Z " fill="#3A4245" transform="translate(500.58984375,265.7265625)"/>
<path d="M0 0 C0.89370804 -0.01261871 1.78741608 -0.02523743 2.70820618 -0.03823853 C22.44984561 -0.26292152 41.28266884 -0.21311436 60.41015625 5.2734375 C61.44495117 5.56814941 62.47974609 5.86286133 63.54589844 6.16650391 C76.46647593 9.95751253 88.68268339 14.65141869 100.41015625 21.2734375 C101.02616699 21.61455566 101.64217773 21.95567383 102.27685547 22.30712891 C133.90257862 39.9481857 158.1062118 66.26811498 176.26611328 97.32324219 C176.64364746 97.96680664 177.02118164 98.61037109 177.41015625 99.2734375 C178.04304565 100.60967163 178.04304565 100.60967163 178.6887207 101.97290039 C180.21392826 104.52227407 180.21392826 104.52227407 183.03540039 104.90112305 C184.59955688 104.90559448 184.59955688 104.90559448 186.1953125 104.91015625 C187.93760132 104.93783081 187.93760132 104.93783081 189.71508789 104.96606445 C190.95508545 104.96437256 192.19508301 104.96268066 193.47265625 104.9609375 C196.03524336 105.00567824 198.59775221 105.0551537 201.16015625 105.109375 C202.40796875 105.13225586 203.65578125 105.15513672 204.94140625 105.17871094 C243.95105768 106.24400829 280.27101213 121.25448224 308.41015625 148.2734375 C309.3640625 149.16417969 310.31796875 150.05492187 311.30078125 150.97265625 C338.10051598 176.44515779 354.62232886 213.18586052 356.61523438 250.06884766 C356.71281573 254.01342462 356.74476763 257.95309331 356.72265625 261.8984375 C356.7205011 262.59587067 356.71834595 263.29330383 356.71612549 264.01187134 C356.52781482 302.17199431 344.12079228 340.51238702 318.41015625 369.2734375 C317.54648437 370.26859375 316.6828125 371.26375 315.79296875 372.2890625 C309.88648736 379.00615464 303.60827489 384.93624979 296.41015625 390.2734375 C295.8800293 390.66740723 295.34990234 391.06137695 294.80371094 391.46728516 C281.64098525 401.10441717 266.81979075 408.80891349 251.09765625 413.2734375 C250.45465576 413.45688721 249.81165527 413.64033691 249.14916992 413.8293457 C234.4300423 417.60045199 219.48304465 417.53536981 204.41015625 417.3984375 C202.45964007 417.3883766 200.5091188 417.37925631 198.55859375 417.37109375 C193.84231916 417.34935199 189.12629611 417.31499784 184.41015625 417.2734375 C183.96772583 418.21292236 183.96772583 418.21292236 183.51635742 419.17138672 C181.02506311 423.90545074 175.89420933 426.65741547 171.09765625 428.6484375 C160.7471118 430.40276707 153.23937973 429.3572236 144.41015625 423.2734375 C138.77219326 417.77724147 136.39959346 411.82872546 135.97265625 404.0234375 C136.13671817 396.92052144 138.55393629 391.50723878 143.2421875 386.19921875 C148.73082072 381.03535673 154.28334823 378.22674948 161.84765625 377.8984375 C169.67596024 378.20887024 175.83657239 380.69985364 181.41015625 386.2734375 C182.12785579 387.47632559 182.83748859 388.68405623 183.53979492 389.89599609 C185.02098557 391.98721373 185.84275774 393.08152479 188.28921509 393.90899658 C190.58341908 394.13413947 192.78189735 394.13954965 195.0859375 394.0625 C195.92875778 394.05971039 196.77157806 394.05692078 197.63993835 394.05404663 C199.42624985 394.0412994 201.21250973 394.01165666 202.99829102 393.96630859 C205.67632124 393.89959183 208.3505174 393.88435344 211.02929688 393.87890625 C224.64975267 393.76179236 238.03185225 392.39698504 250.91015625 387.6484375 C251.60536377 387.39537842 252.30057129 387.14231934 253.0168457 386.8815918 C282.68054514 375.59405022 305.94320781 351.7093923 319.41015625 323.2734375 C334.75515027 288.26228716 336.99674773 249.37244005 323.65625 213.41015625 C317.05891764 196.53195259 307.6319893 182.56306307 295.41015625 169.2734375 C294.7965625 168.58894531 294.18296875 167.90445313 293.55078125 167.19921875 C276.04386457 148.60895327 250.31932107 136.56388194 225.41015625 132.2734375 C224.38575439 132.09611084 223.36135254 131.91878418 222.3059082 131.73608398 C214.81879097 130.58607015 207.53368571 130.10631192 199.96875 130.03515625 C199.06336487 130.02624863 198.15797974 130.017341 197.22515869 130.00816345 C193.47769916 129.97862388 189.73073519 129.95875483 185.9831543 129.96801758 C183.20690392 129.97063511 180.43228192 129.94259326 177.65625 129.91015625 C176.8155748 129.92036301 175.9748996 129.93056976 175.10874939 129.94108582 C171.02830388 129.87314195 168.25973707 129.58806166 164.99511719 127.01611328 C162.71868442 124.60078974 161.22186586 122.71819481 159.8046875 119.75390625 C159.17445679 118.47978882 159.17445679 118.47978882 158.53149414 117.17993164 C158.09957764 116.28266357 157.66766113 115.38539551 157.22265625 114.4609375 C149.5026222 99.1386618 139.96851041 85.92313841 128.41015625 73.2734375 C127.6625 72.45359375 126.91484375 71.63375 126.14453125 70.7890625 C99.78964447 43.26284742 60.58814688 25.05123244 22.50201416 24.07749939 C4.8551231 23.73315346 -12.43420088 23.57930854 -29.58984375 28.2734375 C-30.45528809 28.50949707 -31.32073242 28.74555664 -32.21240234 28.98876953 C-73.07948656 40.57861185 -108.11113101 68.04633538 -128.9375 105.10546875 C-131.01236649 108.88411508 -133.03129471 112.68911295 -135.03125 116.5078125 C-140.25035654 126.38044603 -140.25035654 126.38044603 -144.58984375 129.2734375 C-146.5690918 129.53172302 -146.5690918 129.53172302 -148.8515625 129.54467773 C-150.14066528 129.55995766 -150.14066528 129.55995766 -151.45581055 129.57554626 C-152.3869165 129.57768631 -153.31802246 129.57982635 -154.27734375 129.58203125 C-156.27734596 129.60724685 -158.2773459 129.63264382 -160.27734375 129.65820312 C-163.40754243 129.6866021 -166.53769966 129.71061904 -169.66796875 129.72973633 C-186.60471739 129.85323345 -203.67395355 130.36137166 -219.71484375 136.3984375 C-220.53484863 136.6977417 -221.35485352 136.9970459 -222.19970703 137.30541992 C-240.52270459 144.22913027 -256.45623948 154.77994212 -270.58984375 168.2734375 C-271.17765625 168.79808594 -271.76546875 169.32273437 -272.37109375 169.86328125 C-295.36164445 191.17291905 -308.4067931 225.80055945 -309.828125 256.59375 C-310.83635852 293.67717436 -298.65260008 330.46266933 -273.33203125 357.84765625 C-258.76243003 373.14780122 -241.73508961 383.78598544 -221.58984375 390.2734375 C-226.11077343 391.72950269 -229.10633171 390.54376591 -233.58984375 389.2734375 C-233.58984375 390.9234375 -233.58984375 392.5734375 -233.58984375 394.2734375 C-235.23984375 394.6034375 -236.88984375 394.9334375 -238.58984375 395.2734375 C-238.79609375 396.3459375 -239.00234375 397.4184375 -239.21484375 398.5234375 C-240.58984375 402.2734375 -240.58984375 402.2734375 -243.33984375 404.8359375 C-246.58984375 406.2734375 -246.58984375 406.2734375 -249.33984375 405.62109375 C-253.03679221 404.08810431 -256.43070059 402.22612403 -259.83984375 400.1484375 C-260.82827271 399.54902344 -260.82827271 399.54902344 -261.83666992 398.9375 C-267.45768303 395.46701004 -272.60549842 391.61383217 -277.58984375 387.2734375 C-278.83507812 386.19255859 -278.83507812 386.19255859 -280.10546875 385.08984375 C-282.63409949 382.85208311 -285.11625086 380.57176777 -287.58984375 378.2734375 C-288.31816406 377.62246094 -289.04648437 376.97148438 -289.796875 376.30078125 C-311.20763105 356.278831 -324.32201286 326.40579474 -330.58984375 298.2734375 C-330.75355469 297.60183594 -330.91726563 296.93023438 -331.0859375 296.23828125 C-336.15740521 275.15606425 -335.81991112 249.27607024 -330.58984375 228.2734375 C-330.42355469 227.55414063 -330.25726563 226.83484375 -330.0859375 226.09375 C-323.28837191 196.99009881 -307.96666754 172.69766812 -287.58984375 151.2734375 C-286.71972656 150.32404297 -286.71972656 150.32404297 -285.83203125 149.35546875 C-266.06094611 128.44183346 -238.28782474 114.70265117 -210.58984375 108.2734375 C-209.85459473 108.10086426 -209.1193457 107.92829102 -208.36181641 107.75048828 C-199.92894076 105.87501054 -191.67235704 105.20807215 -183.05078125 105.19140625 C-181.91279335 105.1828788 -181.91279335 105.1828788 -180.7518158 105.17417908 C-176.91094647 105.14651093 -173.08112228 105.16465302 -169.24145508 105.26635742 C-161.84080439 105.53838115 -161.84080439 105.53838115 -155.39575195 102.46459961 C-153.81595044 100.13270054 -152.68800679 97.8632524 -151.58984375 95.2734375 C-150.88457608 94.04066912 -150.16313687 92.8169353 -149.421875 91.60546875 C-149.0921167 91.02974121 -148.7623584 90.45401367 -148.42260742 89.86083984 C-140.91825568 76.80588958 -131.37611028 65.58522978 -120.98925781 54.74023438 C-119.71503646 53.40465833 -118.45993172 52.05090973 -117.20703125 50.6953125 C-105.80920939 38.71794037 -92.02769264 29.21234966 -77.58984375 21.2734375 C-76.98946289 20.93505859 -76.38908203 20.59667969 -75.77050781 20.24804688 C-52.95419504 7.505995 -26.12229832 0.33740809 0 0 Z " fill="#394144" transform="translate(500.58984375,265.7265625)"/>
<path d="M0 0 C0.78590012 0.00404846 1.57180023 0.00809692 2.3815155 0.01226807 C3.20948639 0.00876343 4.03745728 0.00525879 4.89051819 0.00164795 C7.64175186 -0.00718809 10.39273013 -0.00130779 13.14396667 0.00543213 C15.06052703 0.00408461 16.97708705 0.00214334 18.89364624 -0.00036621 C22.92300145 -0.00332115 26.95226821 0.00098682 30.98161316 0.01031494 C36.11454098 0.0216254 41.24725769 0.01520622 46.3801775 0.00317001 C50.34649193 -0.00411101 54.31275769 -0.00173079 58.27907372 0.0034256 C60.16905938 0.00474932 62.05904962 0.00315976 63.94902992 -0.00153351 C84.7579573 -0.04181273 102.17855481 1.70791419 118.06193542 16.39605713 C126.12425949 24.75437561 130.25602565 35.29927981 130.74943542 46.77105713 C130.430352 61.6365906 125.50409421 75.65328127 114.74943542 86.14605713 C100.44255972 98.10825517 84.23248041 98.60090296 66.53849792 98.67730713 C65.65015636 98.68296188 64.7618148 98.68861664 63.8465538 98.69444275 C59.15938414 98.7242219 54.47233468 98.74281785 49.78507996 98.75152588 C44.95275904 98.76256091 40.12154661 98.81080809 35.28957558 98.86746979 C31.55949112 98.90469738 27.82967701 98.91513159 24.09942245 98.91819763 C22.31719679 98.92424217 20.5349754 98.94027113 18.7529335 98.96656799 C16.26603119 99.00069446 13.78188713 98.99693726 11.29484558 98.98394775 C10.19759155 99.0115921 10.19759155 99.0115921 9.07817078 99.03979492 C7.01472473 99.00604248 7.01472473 99.00604248 3.37443542 98.27105713 C0.75440979 95.47650146 0.75440979 95.47650146 -1.62556458 92.27105713 C-2.70398621 91.65884308 -3.78240784 91.04662903 -4.89350891 90.41586304 C-7.62556458 88.27105713 -7.62556458 88.27105713 -8.36054993 84.53860474 C-8.38398503 83.01061931 -8.37424753 81.48190851 -8.3384552 79.9541626 C-8.34254395 79.11798401 -8.34663269 78.28180542 -8.35084534 77.42028809 C-8.35685791 74.65871447 -8.31993131 71.89953384 -8.28181458 69.13824463 C-8.27569912 67.22061759 -8.27194709 65.30298167 -8.27046204 63.38534546 C-8.26125859 59.3685501 -8.23241697 55.35255732 -8.18806458 51.33599854 C-8.13142303 46.1795805 -8.10963407 41.02379363 -8.10070038 35.86709404 C-8.09240018 31.90890147 -8.07277349 27.95083729 -8.0489502 23.99271011 C-8.03753317 22.09085241 -8.0280196 20.18898233 -8.02041626 18.28710556 C-8.00671433 15.63423551 -7.97946431 12.98187174 -7.9478302 10.3291626 C-7.94559448 9.53847382 -7.94335876 8.74778503 -7.9410553 7.93313599 C-7.83540492 1.26691388 -6.67844046 0.0526039 0 0 Z " fill="#F9F8F6" transform="translate(575.6255645751953,444.72894287109375)"/>
<path d="M0 0 C9.53695836 -0.06993114 19.07382661 -0.12302792 28.61098671 -0.15543652 C33.04088105 -0.1710017 37.47059821 -0.19206977 41.90039062 -0.22631836 C46.18630048 -0.259242 50.47204139 -0.27692152 54.75806808 -0.28463173 C56.38210072 -0.29011669 58.00612555 -0.30082477 59.63008499 -0.31719017 C76.41276764 -0.47938008 91.75676422 1.21187041 104.75 13 C114.31863178 23.18707117 118.54682467 36.33049722 118.25390625 50.13671875 C117.04294253 63.79266349 111.77266994 73.59045027 102 83 C91.93059766 91.37030248 80.30707916 94.00839416 67.44750977 94.25634766 C66.36797531 94.27825165 66.36797531 94.27825165 65.26663208 94.30059814 C58.67950865 94.4258949 52.09128408 94.49522928 45.50322056 94.54844093 C41.08873779 94.58426081 36.67606856 94.63777916 32.26245117 94.73388672 C27.97478262 94.82692819 23.6887195 94.87538983 19.4000988 94.89283371 C17.77371334 94.90687621 16.14738073 94.93639959 14.52157784 94.98213577 C1.78853721 95.32305574 1.78853721 95.32305574 -2.64993286 92.03973389 C-4.74633789 89.63037109 -4.74633789 89.63037109 -6.35731506 87.22958374 C-7.88821498 84.81137765 -7.88821498 84.81137765 -10.65994263 83.604599 C-13 82 -13 82 -13.65510559 79.17399597 C-13.67464546 77.4524102 -13.67464546 77.4524102 -13.69458008 75.69604492 C-13.7327459 73.74337959 -13.7327459 73.74337959 -13.77168274 71.75126648 C-13.77268874 70.32766741 -13.77192791 68.90406616 -13.76953125 67.48046875 C-13.78052096 66.01938582 -13.79255485 64.5583104 -13.80558777 63.09724426 C-13.82650514 60.0329482 -13.82777025 56.9693695 -13.81665039 53.9050293 C-13.80497819 49.98651906 -13.85239354 46.07126188 -13.91611195 42.15334606 C-13.95680216 39.13420259 -13.96046755 36.11583664 -13.95371056 33.09646034 C-13.95591119 31.65276928 -13.97074493 30.20903816 -13.99866676 28.76561546 C-14.19392321 17.36130684 -14.19392321 17.36130684 -11.33041382 14.09634399 C-9.25268555 12.69262695 -9.25268555 12.69262695 -7.07963562 11.47554016 C-3.22359971 8.73961095 -1.75359771 4.26596366 0 0 Z " fill="#F9F8F5" transform="translate(352,452)"/>
<path d="M0 0 C1.08768878 1.00233679 2.15486999 2.02727795 3.20304871 3.07086182 C7.19762262 6.54961688 10.27361696 6.8464607 15.4387207 6.74121094 C16.65973984 6.75233665 16.65973984 6.75233665 17.90542603 6.76368713 C20.57958272 6.78150046 23.2516959 6.75778407 25.92578125 6.734375 C27.79755299 6.74055504 29.66931716 6.74965574 31.5410614 6.76153564 C36.46111096 6.78623423 41.38048044 6.77705473 46.30053711 6.75897217 C54.16316497 6.73555063 62.02574821 6.76291225 69.88832664 6.79169464 C72.62134836 6.79677384 75.35399764 6.7870071 78.08699036 6.77484131 C99.07189972 6.74399287 117.80495229 12.17799086 133.4375 26.875 C147.051857 41.59479624 152.8804166 60.84556227 152.28125 80.57421875 C151.29855875 99.58519997 143.05796154 116.97069916 129.31640625 130.09375 C121.15799414 136.80758661 111.8372018 141.31326491 102 145 C102.51691406 145.77085937 103.03382813 146.54171875 103.56640625 147.3359375 C104.22511719 148.33882812 104.88382813 149.34171875 105.5625 150.375 C106.22378906 151.37273437 106.88507813 152.37046875 107.56640625 153.3984375 C108.03949219 154.25695312 108.51257813 155.11546875 109 156 C108.67 156.66 108.34 157.32 108 158 C106.63053378 156.26194659 105.27984046 154.50908767 103.9375 152.75 C103.18339844 151.77546875 102.42929687 150.8009375 101.65234375 149.796875 C100 147 100 147 100.25390625 144.640625 C100.50011719 144.09921875 100.74632812 143.5578125 101 143 C101.66 143 102.32 143 103 143 C102.79375 142.21625 102.5875 141.4325 102.375 140.625 C102.189375 139.325625 102.189375 139.325625 102 138 C102.66 137.34 103.32 136.68 104 136 C104.66 136.33 105.32 136.66 106 137 C105.01 136.01 104.02 135.02 103 134 C102.34 134.33 101.68 134.66 101 135 C100.67 134.01 100.34 133.02 100 132 C101.98 130.68 103.96 129.36 106 128 C105.67 127.01 105.34 126.02 105 125 C102.98491642 124.26676204 102.98491642 124.26676204 101 124 C101.33 123.01 101.66 122.02 102 121 C100.783125 121.495 99.56625 121.99 98.3125 122.5 C95.07513262 123.72479441 92.49900643 124.32803185 89 124 C91.81333429 122.12444381 93.94787987 121.28188517 97.125 120.25 C107.97593041 116.34709618 116.69994951 109.41339691 122.3125 99.1875 C128.08974432 86.24647272 128.5270003 73.34183862 124 60 C118.89482846 47.19731126 111.97629934 40.55546157 99.85546875 34.4453125 C89.62559884 30.22628625 78.38538739 30.66384363 67.51953125 30.5859375 C65.85372496 30.5671907 64.18792782 30.54761478 62.5221405 30.5272522 C58.1739953 30.47629549 53.82581944 30.43647661 49.47753906 30.39910889 C45.02596683 30.35883839 40.57451812 30.30785215 36.12304688 30.2578125 C27.41544951 30.16148595 18.70779012 30.07694519 10 30 C10 29.67 10 29.34 10 29 C36.4 29 62.8 29 90 29 C89.505 28.01 89.505 28.01 89 27 C89.99 26.505 89.99 26.505 91 26 C90.97679687 25.24074219 90.95359375 24.48148437 90.9296875 23.69921875 C90.91164063 22.70535156 90.89359375 21.71148437 90.875 20.6875 C90.85179687 19.70136719 90.82859375 18.71523438 90.8046875 17.69921875 C91 15 91 15 93 12 C93.66 12 94.32 12 95 12 C95 11.01 95 10.02 95 9 C93.35081825 9.00119339 93.35081825 9.00119339 91.6683197 9.00241089 C81.29539795 9.00601677 70.92297117 8.97817444 60.55020809 8.9197216 C55.21767978 8.89067747 49.88559079 8.87262658 44.55297852 8.87988281 C39.40441636 8.88648108 34.25672192 8.86396224 29.10833931 8.82144547 C27.14644014 8.81032318 25.18445289 8.80960617 23.22254753 8.81957626 C20.46894182 8.83177353 17.71797468 8.8066254 14.96459961 8.77294922 C14.15755081 8.78517014 13.35050201 8.79739105 12.51899719 8.8099823 C7.05573908 8.68996689 4.34184105 7.2591338 0.45832157 3.41731453 C-3.9155364 -0.83355344 -9.58919574 -0.39617818 -15.32983398 -0.36352539 C-21.90998499 -0.18264158 -26.18306699 1.15873064 -30.80859375 5.82421875 C-32.28362576 7.50364319 -33.66908075 9.20527556 -35 11 C-35.33 10.34 -35.66 9.68 -36 9 C-27.23869857 -2.60661155 -13.54023544 -7.68558605 0 0 Z M106 133 C106.33 133.66 106.66 134.32 107 135 C107.33 134.34 107.66 133.68 108 133 C107.34 133 106.68 133 106 133 Z " fill="#353C3F" transform="translate(342,422)"/>
<path d="M0 0 C2.97 0 5.94 0 9 0 C10.125 2.0625 10.125 2.0625 11 5 C10.62875 6.093125 10.2575 7.18625 9.875 8.3125 C8.80563274 12.81911916 9.62034825 14.32450627 11.83984375 18.19921875 C13.13759165 20.21356819 14.46505526 22.15806632 16 24 C15.67 24.66 15.34 25.32 15 26 C12.31124812 22.3490298 9.64847564 18.68028752 7 15 C6.39542969 14.16726563 5.79085938 13.33453125 5.16796875 12.4765625 C2.26898637 8.34322023 0.26683281 5.20323974 0 0 Z " fill="#31383A" transform="translate(420,571)"/>
<path d="M0 0 C1.1446875 0.2784375 1.1446875 0.2784375 2.3125 0.5625 C5.08967375 1.22819173 5.08967375 1.22819173 8 0 C10.36522558 0.92203709 12.70401807 1.91698965 15 3 C14.071875 3.8971875 14.071875 3.8971875 13.125 4.8125 C10.86323046 7.00811144 10.86323046 7.00811144 9 10 C8.34 9.01 7.68 8.02 7 7 C6.67 7.66 6.34 8.32 6 9 C5.01 9.33 4.02 9.66 3 10 C-0.22265625 4.82421875 -0.22265625 4.82421875 -1 3 C-0.67 2.01 -0.34 1.02 0 0 Z " fill="#3E484B" transform="translate(751,383)"/>
<path d="M0 0 C1.32 0.66 2.64 1.32 4 2 C3.67 2.33 3.34 2.66 3 3 C2.95919217 4.99958364 2.95745644 7.00045254 3 9 C2.01 9.33 1.02 9.66 0 10 C5.28 15.28 10.56 20.56 16 26 C13 26 13 26 11.33007812 24.68652344 C10.73646484 24.08356445 10.14285156 23.48060547 9.53125 22.859375 C8.87769531 22.20066406 8.22414062 21.54195312 7.55078125 20.86328125 C6.87402344 20.16589844 6.19726562 19.46851563 5.5 18.75 C4.82324219 18.06808594 4.14648438 17.38617187 3.44921875 16.68359375 C-2.88793034 10.2464502 -2.88793034 10.2464502 -5 7 C-4.6875 4.25 -4.6875 4.25 -4 2 C-3.01 2 -2.02 2 -1 2 C-0.67 1.34 -0.34 0.68 0 0 Z " fill="#252B2D" transform="translate(206,624)"/>
<path d="M0 0 C2.93200474 2.85276137 5.64315404 5.65079784 8 9 C7.67 9.66 7.34 10.32 7 11 C6.01 10.67 5.02 10.34 4 10 C3.67 10.66 3.34 11.32 3 12 C2.01 12 1.02 12 0 12 C-0.33 11.01 -0.66 10.02 -1 9 C-2.65 9 -4.3 9 -6 9 C-4.58845234 5.58875982 -2.93778777 4.1543777 0 2 C0 1.34 0 0.68 0 0 Z " fill="#343A3E" transform="translate(824,432)"/>
<path d="M0 0 C0.66 0 1.32 0 2 0 C2.309375 1.093125 2.61875 2.18625 2.9375 3.3125 C3.58337897 5.55407994 4.2623117 7.7869351 5 10 C5.34227417 11.33106622 5.67751743 12.66400079 6 14 C3.875 14 3.875 14 1 13 C-1.40872371 10.58575169 -3.48786794 8.06405707 -5 5 C-4.6640625 2.73828125 -4.6640625 2.73828125 -4 1 C-3.34 1.99 -2.68 2.98 -2 4 C-1.34 2.68 -0.68 1.36 0 0 Z " fill="#33393C" transform="translate(309,450)"/>
<path d="M0 0 C0 0.99 0 1.98 0 3 C-0.33 3.33 -0.66 3.66 -1 4 C-0.484375 4.391875 0.03125 4.78375 0.5625 5.1875 C2 7 2 7 1.8125 9.5625 C1 12 1 12 -1 14 C-3.0625 13.75 -3.0625 13.75 -5 13 C-5.33 12.34 -5.66 11.68 -6 11 C-6.99 11.99 -7.98 12.98 -9 14 C-7.65070536 10.16336928 -5.92248975 7.34827431 -3.375 4.1875 C-2.42753906 3.00220703 -2.42753906 3.00220703 -1.4609375 1.79296875 C-0.97882813 1.20128906 -0.49671875 0.60960937 0 0 Z " fill="#2F3739" transform="translate(200,432)"/>
<path d="M0 0 C10.76645841 -0.39389482 21.31427866 0.81739052 32 2 C32 2.33 32 2.66 32 3 C21.44 3 10.88 3 0 3 C-0.33 3.66 -0.66 4.32 -1 5 C-3.64 4.67 -6.28 4.34 -9 4 C-9 3.67 -9 3.34 -9 3 C-6.03 2.34 -3.06 1.68 0 1 C0 0.67 0 0.34 0 0 Z " fill="#464E52" transform="translate(309,371)"/>
<path d="M0 0 C0.66 0.33 1.32 0.66 2 1 C1.60167969 1.58007812 1.20335937 2.16015625 0.79296875 2.7578125 C-0.00173828 3.92957031 -0.00173828 3.92957031 -0.8125 5.125 C-1.33457031 5.89070312 -1.85664062 6.65640625 -2.39453125 7.4453125 C-5.97667203 13.14536134 -7.39616431 16.54605303 -6.6875 23.375 C-6.56761719 24.62023437 -6.44773437 25.86546875 -6.32421875 27.1484375 C-6.21722656 28.08945312 -6.11023438 29.03046875 -6 30 C-8 29 -8 29 -8.6015625 27.2578125 C-10.17161839 18.36082915 -8.96358737 11.57896201 -4 4 C-1.6875 1.375 -1.6875 1.375 0 0 Z " fill="#202324" transform="translate(646,650)"/>
<path d="M0 0 C0.68191406 -0.00386719 1.36382812 -0.00773437 2.06640625 -0.01171875 C6.51555248 -0.00324419 10.73458055 0.40281612 15.125 1.125 C15.125 1.455 15.125 1.785 15.125 2.125 C14.38894531 2.16238281 13.65289062 2.19976562 12.89453125 2.23828125 C5.52087342 2.65484473 5.52087342 2.65484473 -0.875 6.125 C-1.205 4.805 -1.535 3.485 -1.875 2.125 C-2.6484375 2.4034375 -2.6484375 2.4034375 -3.4375 2.6875 C-6.73408739 3.27919517 -9.59745735 2.692267 -12.875 2.125 C-12.875 1.795 -12.875 1.465 -12.875 1.125 C-8.57717639 0.07144791 -4.39880339 -0.02466619 0 0 Z " fill="#434B4F" transform="translate(421.875,429.875)"/>
<path d="M0 0 C2.33944736 0.28730055 4.6739143 0.61936779 7 1 C7 2.32 7 3.64 7 5 C5.35 5 3.7 5 2 5 C1.67 5.66 1.34 6.32 1 7 C-2.33333333 5.33333333 -5.66666667 3.66666667 -9 2 C-6.06193103 1.02064368 -4.04722362 1 -1 1 C-0.67 0.67 -0.34 0.34 0 0 Z " fill="#3C4549" transform="translate(453,454)"/>
<path d="M0 0 C0.66 0.33 1.32 0.66 2 1 C0.68 2.32 -0.64 3.64 -2 5 C-1.34 5.66 -0.68 6.32 0 7 C-2.375 8.5625 -2.375 8.5625 -5 10 C-5.66 9.67 -6.32 9.34 -7 9 C-8.35208914 9.62775567 -9.68163705 10.30419733 -11 11 C-12.99220557 11.68960962 -14.99105606 12.36079057 -17 13 C-14.21499574 9.89441971 -10.80517746 7.69673583 -7.375 5.375 C-3.50789596 2.90592686 -3.50789596 2.90592686 0 0 Z " fill="#1D2122" transform="translate(785,634)"/>
<path d="M0 0 C0.33 0 0.66 0 1 0 C1.02505615 0.65073486 1.0501123 1.30146973 1.07592773 1.97192383 C1.19193702 4.91898046 1.31464115 7.8657213 1.4375 10.8125 C1.47681641 11.83666016 1.51613281 12.86082031 1.55664062 13.91601562 C1.59853516 14.89892578 1.64042969 15.88183594 1.68359375 16.89453125 C1.72025146 17.80050049 1.75690918 18.70646973 1.79467773 19.63989258 C1.9208205 22.15048782 1.9208205 22.15048782 3 25 C0.525 24.01 0.525 24.01 -2 23 C-1.34 22.67 -0.68 22.34 0 22 C0 21.34 0 20.68 0 20 C-0.66 19.67 -1.32 19.34 -2 19 C-1.34 19 -0.68 19 0 19 C0 15.04 0 11.08 0 7 C-0.99 7 -1.98 7 -3 7 C-2.67 5.68 -2.34 4.36 -2 3 C-1.34 3 -0.68 3 0 3 C0 2.01 0 1.02 0 0 Z " fill="#414A4E" transform="translate(336,511)"/>
<path d="M0 0 C0.33 0 0.66 0 1 0 C1.33 2.31 1.66 4.62 2 7 C3.32 6.01 4.64 5.02 6 4 C6.33 4.66 6.66 5.32 7 6 C6.34 6 5.68 6 5 6 C5 8.31 5 10.62 5 13 C4.34 13 3.68 13 3 13 C2.67 13.66 2.34 14.32 2 15 C-0.02558881 11.65060119 -0.21738987 9.13037449 -0.125 5.25 C-0.09792969 3.77273438 -0.09792969 3.77273438 -0.0703125 2.265625 C-0.04710937 1.51796875 -0.02390625 0.7703125 0 0 Z " fill="#424A4D" transform="translate(472,666)"/>
<path d="M0 0 C-0.66 0 -1.32 0 -2 0 C-3.41377341 2.63904371 -4.37240135 5.07120629 -5 8 C-6.32 8.33 -7.64 8.66 -9 9 C-9.33 8.01 -9.66 7.02 -10 6 C-10.66 5.34 -11.32 4.68 -12 4 C-10.56988027 3.13353333 -9.13059381 2.28218171 -7.6875 1.4375 C-6.48673828 0.72400391 -6.48673828 0.72400391 -5.26171875 -0.00390625 C-3 -1 -3 -1 0 0 Z " fill="#424A4E" transform="translate(261,387)"/>
<path d="M0 0 C0.33 0 0.66 0 1 0 C1.07369023 4.12665279 1.05234391 8.04180583 0.4375 12.125 C0.02794518 15.75248551 0.2044119 18.4640529 1 22 C-2.43844969 18.56155031 -2.16112665 15.20948503 -2.1875 10.5625 C-2.20167969 9.42941406 -2.21585937 8.29632812 -2.23046875 7.12890625 C-2.01071135 4.14542021 -1.55843386 2.50704577 0 0 Z " fill="#1D2021" transform="translate(306,547)"/>
<path d="M0 0 C0.66 0.66 1.32 1.32 2 2 C4.73434962 2.3063859 7.38279821 2.5113336 10.125 2.625 C10.87910156 2.66367187 11.63320313 2.70234375 12.41015625 2.7421875 C14.27303184 2.83651031 16.13648255 2.91934662 18 3 C16.71484375 4.5234375 16.71484375 4.5234375 15 6 C12.6568787 5.74438677 10.32156597 5.40729228 8 5 C7.29875 5.226875 6.5975 5.45375 5.875 5.6875 C4 6 4 6 1.25 4.0625 C0.5075 3.381875 -0.235 2.70125 -1 2 C-0.67 1.34 -0.34 0.68 0 0 Z " fill="#424B4E" transform="translate(517,658)"/>
<path d="M0 0 C0.33 0 0.66 0 1 0 C1.25044324 3.02040579 1.4758559 6.03933112 1.6875 9.0625 C1.76033203 9.91005859 1.83316406 10.75761719 1.90820312 11.63085938 C2.28200935 17.32590715 1.67130263 20.93894591 -1 26 C-2.3271261 22.0186217 -2.06915913 18.14954773 -2 14 C-1.67 14 -1.34 14 -1 14 C-0.67 9.38 -0.34 4.76 0 0 Z " fill="#485054" transform="translate(707,484)"/>
<path d="M0 0 C0.33 0.66 0.66 1.32 1 2 C3.11785113 3.11785113 3.11785113 3.11785113 6 4 C5.67 4.99 5.34 5.98 5 7 C5.33 7.66 5.66 8.32 6 9 C1.56541027 7.6062718 -0.87378374 5.39417765 -4 2 C-3.01 2 -2.02 2 -1 2 C-0.67 1.34 -0.34 0.68 0 0 Z M3 0 C3.66 0.66 4.32 1.32 5 2 C4.34 2 3.68 2 3 2 C3 1.34 3 0.68 3 0 Z " fill="#434C50" transform="translate(233,653)"/>
<path d="M0 0 C3.3 0 6.6 0 10 0 C10 0.66 10 1.32 10 2 C11.0209375 2.12375 11.0209375 2.12375 12.0625 2.25 C15.8746907 3.22332528 18.64070329 4.95807455 22 7 C21.01 7.495 21.01 7.495 20 8 C18.16555196 7.04880472 16.33258775 6.09462227 14.5078125 5.125 C9.88595931 3.0516453 4.93102151 2.08482473 0 1 C0 0.67 0 0.34 0 0 Z " fill="#181B1C" transform="translate(662,445)"/>
<path d="M0 0 C0.33 0 0.66 0 1 0 C1.02721176 1.89575251 1.04649136 3.79161979 1.0625 5.6875 C1.07410156 6.74324219 1.08570313 7.79898437 1.09765625 8.88671875 C1.00772653 11.75367808 0.77692166 14.24192812 0 17 C-2.0625 18.8125 -2.0625 18.8125 -4 20 C-4 17.69 -4 15.38 -4 13 C-3.34 12.67 -2.68 12.34 -2 12 C-1.30772968 9.19019327 -1.30772968 9.19019327 -0.875 5.9375 C-0.70742188 4.83277344 -0.53984375 3.72804688 -0.3671875 2.58984375 C-0.24601562 1.73519531 -0.12484375 0.88054687 0 0 Z " fill="#474E52" transform="translate(471,501)"/>
<path d="M0 0 C0.99 0 1.98 0 3 0 C3.66 0.99 4.32 1.98 5 3 C5.8353125 4.2065625 5.8353125 4.2065625 6.6875 5.4375 C8.19202887 8.37491351 7.95017022 8.99644179 7 12 C5.82767315 10.3790787 4.6622923 8.75313167 3.5 7.125 C2.8503125 6.22007812 2.200625 5.31515625 1.53125 4.3828125 C0 2 0 2 0 0 Z " fill="#24292B" transform="translate(442,606)"/>
<path d="M0 0 C-1.423125 0.8971875 -1.423125 0.8971875 -2.875 1.8125 C-6.13964197 3.81562526 -6.13964197 3.81562526 -8 7 C-10.31 6.67 -12.62 6.34 -15 6 C-11.57875892 3.02500775 -4.44240633 -2.22120316 0 0 Z " fill="#1A1E1F" transform="translate(768,648)"/>
<path d="M0 0 C2.35119399 3.52679099 2.21443452 5.02879485 2.125 9.1875 C2.10695313 10.27417969 2.08890625 11.36085938 2.0703125 12.48046875 C2.03550781 13.72763672 2.03550781 13.72763672 2 15 C0.68 14.67 -0.64 14.34 -2 14 C-1.67 13.34 -1.34 12.68 -1 12 C-0.77141886 9.9625237 -0.58975722 7.91959697 -0.4375 5.875 C-0.35371094 4.77929688 -0.26992188 3.68359375 -0.18359375 2.5546875 C-0.12300781 1.71164062 -0.06242187 0.86859375 0 0 Z " fill="#414A4E" transform="translate(336,611)"/>
<path d="M0 0 C2 3 2 3 1.625 5.1875 C1.41875 5.785625 1.2125 6.38375 1 7 C1.66 7.33 2.32 7.66 3 8 C2.01 8.33 1.02 8.66 0 9 C-0.33 9.66 -0.66 10.32 -1 11 C-1.99 11 -2.98 11 -4 11 C-2.7874262 7.27566618 -1.49140021 3.62197194 0 0 Z " fill="#444D4F" transform="translate(704,510)"/>
<path d="M0 0 C0.33 0.66 0.66 1.32 1 2 C-1.31 4.64 -3.62 7.28 -6 10 C-6.33 8.68 -6.66 7.36 -7 6 C-4.69 4.02 -2.38 2.04 0 0 Z " fill="#30373A" transform="translate(374,328)"/>
<path d="M0 0 C3.36591866 1.44253657 5.51047079 3.33264727 8 6 C7.01 6 6.02 6 5 6 C3.29467677 7.94009522 3.29467677 7.94009522 2 10 C1.34 8.68 0.68 7.36 0 6 C0.66 5.01 1.32 4.02 2 3 C1.34 2.01 0.68 1.02 0 0 Z " fill="#282E30" transform="translate(621,301)"/>
<path d="M0 0 C1.42944945 2.35438733 2.08661261 3.48032433 1.625 6.25 C1.41875 6.8275 1.2125 7.405 1 8 C-2.68754757 7.50168276 -4.60490662 6.89932357 -7 4 C-4.525 4.495 -4.525 4.495 -2 5 C-2.33 4.34 -2.66 3.68 -3 3 C-2.01 2.01 -1.02 1.02 0 0 Z " fill="#2F3537" transform="translate(252,663)"/>
<path d="M0 0 C0.66 0.33 1.32 0.66 2 1 C1.360625 1.763125 0.72125 2.52625 0.0625 3.3125 C-2.14232781 5.88246713 -2.14232781 5.88246713 -3 9 C-4.98 9.33 -6.96 9.66 -9 10 C-8.06409496 8.8944811 -7.12620142 7.79064547 -6.1875 6.6875 C-5.66542969 6.07261719 -5.14335937 5.45773437 -4.60546875 4.82421875 C-3.12827531 3.14575321 -1.59960869 1.56117966 0 0 Z " fill="#464F53" transform="translate(222,410)"/>
<path d="M0 0 C0.33 0 0.66 0 1 0 C1.09038099 5.15171623 0.84681133 9.91913204 0 15 C-1.64826111 12.03312999 -2.44271087 9.34373475 -3 6 C-2.34 6 -1.68 6 -1 6 C-0.67 4.02 -0.34 2.04 0 0 Z " fill="#434C4F" transform="translate(337,467)"/>
<path d="M0 0 C1.24546405 2.49092811 0.7767578 3.41080733 0 6 C0.66 6.33 1.32 6.66 2 7 C0.35 8.32 -1.3 9.64 -3 11 C-3.66 10.67 -4.32 10.34 -5 10 C-3.35 6.7 -1.7 3.4 0 0 Z " fill="#2C3234" transform="translate(349,361)"/>
<path d="M0 0 C0.33 0 0.66 0 1 0 C1 2.97 1 5.94 1 9 C0.34 8.67 -0.32 8.34 -1 8 C-1.33 8.66 -1.66 9.32 -2 10 C-2.66 9.67 -3.32 9.34 -4 9 C-2.80100302 5.9168649 -1.52299523 2.93720508 0 0 Z " fill="#434B4E" transform="translate(855,522)"/>
<path d="M0 0 C0.99 0.33 1.98 0.66 3 1 C2 4 2 4 -1 6 C-3.1875 5.625 -3.1875 5.625 -5 5 C-3.35 3.35 -1.7 1.7 0 0 Z " fill="#303537" transform="translate(227,404)"/>
<path d="M0 0 C0.99 0.66 1.98 1.32 3 2 C1.68 4.31 0.36 6.62 -1 9 C-1.97812643 5.95694001 -2.04560527 4.0322553 -1 1 C-0.67 0.67 -0.34 0.34 0 0 Z " fill="#424C4F" transform="translate(367,369)"/>
<path d="M0 0 C0.99 0.33 1.98 0.66 3 1 C2.40072174 4.35595828 1.15377564 6.37801226 -1 9 C-0.67 7.35 -0.34 5.7 0 4 C-0.66 4 -1.32 4 -2 4 C-2 3.01 -2 2.02 -2 1 C-1.34 0.67 -0.68 0.34 0 0 Z " fill="#272D2F" transform="translate(721,524)"/>
<path d="M0 0 C2 1 2 1 3.1875 3.375 C4 6 4 6 3 9 C3 8.34 3 7.68 3 7 C1.68 7.33 0.36 7.66 -1 8 C-1.33 6.68 -1.66 5.36 -2 4 C-1.01 4 -0.02 4 1 4 C0.67 2.68 0.34 1.36 0 0 Z " fill="#444C50" transform="translate(721,459)"/>
<path d="M0 0 C0.99 0.33 1.98 0.66 3 1 C2.67 2.65 2.34 4.3 2 6 C0.68 5.67 -0.64 5.34 -2 5 C-1.34 3.35 -0.68 1.7 0 0 Z " fill="#414A4E" transform="translate(476,285)"/>
<path d="M0 0 C0.66 0.33 1.32 0.66 2 1 C1.67 1.99 1.34 2.98 1 4 C-1.3125 5.0625 -1.3125 5.0625 -4 6 C-5.34050052 6.65213539 -6.67661368 7.31379969 -8 8 C-5.58443874 4.80800833 -3.31996462 2.25283313 0 0 Z " fill="#1C2021" transform="translate(401,301)"/>
<path d="M0 0 C0.33 0 0.66 0 1 0 C1.34833144 4.87664009 0.41685712 7.77050005 -2 12 C-3.6026213 8.7947574 -2.04134314 6.29758661 -1 3 C-0.67 2.01 -0.34 1.02 0 0 Z " fill="#2A2E30" transform="translate(351,448)"/>
<path d="M0 0 C0.66 0.33 1.32 0.66 2 1 C1.67 1.99 1.34 2.98 1 4 C-0.84765625 4.73046875 -0.84765625 4.73046875 -3.0625 5.1875 C-3.79597656 5.34605469 -4.52945313 5.50460937 -5.28515625 5.66796875 C-6.13400391 5.83232422 -6.13400391 5.83232422 -7 6 C-2.25 1.125 -2.25 1.125 0 0 Z " fill="#25282A" transform="translate(240,395)"/>
<path d="M0 0 C2 1 2 1 3 3 C-2.445 4.485 -2.445 4.485 -8 6 C-7.67 5.34 -7.34 4.68 -7 4 C-6.01 4 -5.02 4 -4 4 C-3.67 3.34 -3.34 2.68 -3 2 C-2.34 2.33 -1.68 2.66 -1 3 C-0.67 2.01 -0.34 1.02 0 0 Z " fill="#4A5255" transform="translate(286,395)"/>
<path d="M0 0 C4 0 4 0 6 1 C5.67 2.65 5.34 4.3 5 6 C3.0625 5.25 3.0625 5.25 1 4 C0.25 1.875 0.25 1.875 0 0 Z " fill="#2F3536" transform="translate(815,458)"/>
<path d="M0 0 C0.99 0.33 1.98 0.66 3 1 C0.69 3.64 -1.62 6.28 -4 9 C-4 5.00095031 -2.27413033 3.19799578 0 0 Z " fill="#454D51" transform="translate(814,603)"/>
<path d="M0 0 C3.3125 0.1875 3.3125 0.1875 7 1 C8.9375 3.5625 8.9375 3.5625 10 6 C6.66666667 4.33333333 3.33333333 2.66666667 0 1 C0 0.67 0 0.34 0 0 Z " fill="#464E51" transform="translate(444,455)"/>
<path d="M0 0 C3.3 0 6.6 0 10 0 C10.33 0.99 10.66 1.98 11 3 C8.36 3 5.72 3 3 3 C3 2.34 3 1.68 3 1 C2.01 0.67 1.02 0.34 0 0 Z " fill="#454D50" transform="translate(736,377)"/>
<path d="M0 0 C0.66 0.66 1.32 1.32 2 2 C1.67 2.61875 1.34 3.2375 1 3.875 C-0.14193235 5.91018344 -0.14193235 5.91018344 0 8 C-1.32 8.33 -2.64 8.66 -4 9 C-2.94124926 5.59687262 -1.99097846 2.98646769 0 0 Z " fill="#464F54" transform="translate(352,358)"/>
<path d="M0 0 C0.33 0.66 0.66 1.32 1 2 C-0.65 3.65 -2.3 5.3 -4 7 C-4.33 6.01 -4.66 5.02 -5 4 C-3.74458443 1.48916886 -2.49936512 1.12874554 0 0 Z " fill="#485053" transform="translate(578,680)"/>
<path d="M0 0 C0.99 0 1.98 0 3 0 C2.75 1.875 2.75 1.875 2 4 C-0.0625 5.25 -0.0625 5.25 -2 6 C-1.49396008 3.83125748 -1.00016187 2.00032373 0 0 Z " fill="#383C3D" transform="translate(809,640)"/>
<path d="M0 0 C2.31 0 4.62 0 7 0 C5.515 1.98 5.515 1.98 4 4 C4 3.34 4 2.68 4 2 C2.02 2.66 0.04 3.32 -2 4 C-1.34 2.68 -0.68 1.36 0 0 Z " fill="#444B4D" transform="translate(430,283)"/>
</svg>
